ISO-10303-21;
HEADER;
/* Generated by software containing ST-Developer
 * from STEP Tools, Inc. (www.steptools.com) 
 */
/* OPTION: using custom renumber hook */

FILE_DESCRIPTION(
/* description */ ('STEP AP242 Edition 2',
'CAx-IF Rec.Pracs.---Representation and Presentation of Product Manufa
cturing Information (PMI)---4.0---2014-10-13',
'CAx-IF Rec.Pracs.---3D Tessellated Geometry---0.4---2014-09-14','2;1',
'CAx-IF Rec.Pracs.---User Defined Attributes---1.5---2016-08-15'),
/* implementation_level */ '2;1');

FILE_NAME(
/* name */ 'Part Studio 1 - Part 1',
/* time_stamp */ '2026-05-02T22:55:24Z',
/* author */ (''),
/* organization */ (''),
/* preprocessor_version */ 'ST-DEVELOPER v20',
/* originating_system */ 'ONSHAPE BY PTC INC, 1.214',
/* authorisation */ '  ');

FILE_SCHEMA (('AP242_MANAGED_MODEL_BASED_3D_ENGINEERING_MIM_LF { 1 0 10303 442 3 1 4 }'));
ENDSEC;

DATA;
#10=SHAPE_REPRESENTATION_RELATIONSHIP('','',#1003,#11);
#11=ADVANCED_BREP_SHAPE_REPRESENTATION('',(#1001),#1671);
#12=ELLIPSE('',#1071,0.000707106781186548,0.0005);
#13=ELLIPSE('',#1072,0.000707106781186548,0.0005);
#14=ELLIPSE('',#1074,0.000707106781186548,0.0005);
#15=ELLIPSE('',#1076,0.000707106781186548,0.0005);
#16=ELLIPSE('',#1078,0.000707106781186548,0.0005);
#17=ELLIPSE('',#1080,0.000707106781186548,0.0005);
#18=ELLIPSE('',#1082,0.000707106781186548,0.0005);
#19=ELLIPSE('',#1084,0.000707106781186548,0.0005);
#20=ELLIPSE('',#1087,0.000707106781186548,0.0005);
#21=ELLIPSE('',#1088,0.000707106781186548,0.0005);
#22=ELLIPSE('',#1090,0.000707106781186548,0.0005);
#23=ELLIPSE('',#1092,0.000707106781186548,0.0005);
#24=ELLIPSE('',#1095,0.000707106781186548,0.0005);
#25=ELLIPSE('',#1096,0.000707106781186548,0.0005);
#26=ELLIPSE('',#1098,0.000707106781186548,0.0005);
#27=ELLIPSE('',#1100,0.000707106781186548,0.0005);
#28=TOROIDAL_SURFACE('',#1068,0.0021,0.0005);
#29=TOROIDAL_SURFACE('',#1069,0.0021,0.0005);
#30=SPHERICAL_SURFACE('',#1046,0.0005);
#31=SPHERICAL_SURFACE('',#1057,0.0005);
#32=SPHERICAL_SURFACE('',#1059,0.0005);
#33=SPHERICAL_SURFACE('',#1065,0.0005);
#34=CIRCLE('',#1025,0.0016);
#35=CIRCLE('',#1026,0.0016);
#36=CIRCLE('',#1028,0.0016);
#37=CIRCLE('',#1029,0.0016);
#38=CIRCLE('',#1033,0.0021);
#39=CIRCLE('',#1034,0.0021);
#40=CIRCLE('',#1040,0.0005);
#41=CIRCLE('',#1041,0.0005);
#42=CIRCLE('',#1042,0.0005);
#43=CIRCLE('',#1043,0.0005);
#44=CIRCLE('',#1045,0.0005);
#45=CIRCLE('',#1047,0.0005);
#46=CIRCLE('',#1048,0.0005);
#47=CIRCLE('',#1050,0.0005);
#48=CIRCLE('',#1052,0.0005);
#49=CIRCLE('',#1054,0.0005);
#50=CIRCLE('',#1056,0.0005);
#51=CIRCLE('',#1058,0.0005);
#52=CIRCLE('',#1060,0.0005);
#53=CIRCLE('',#1062,0.0005);
#54=CIRCLE('',#1064,0.0005);
#55=CIRCLE('',#1066,0.0005);
#56=CYLINDRICAL_SURFACE('',#1024,0.0016);
#57=CYLINDRICAL_SURFACE('',#1027,0.0016);
#58=CYLINDRICAL_SURFACE('',#1044,0.0005);
#59=CYLINDRICAL_SURFACE('',#1049,0.0005);
#60=CYLINDRICAL_SURFACE('',#1051,0.0005);
#61=CYLINDRICAL_SURFACE('',#1053,0.0005);
#62=CYLINDRICAL_SURFACE('',#1055,0.0005);
#63=CYLINDRICAL_SURFACE('',#1061,0.0005);
#64=CYLINDRICAL_SURFACE('',#1063,0.0005);
#65=CYLINDRICAL_SURFACE('',#1067,0.0005);
#66=CYLINDRICAL_SURFACE('',#1070,0.0005);
#67=CYLINDRICAL_SURFACE('',#1073,0.0005);
#68=CYLINDRICAL_SURFACE('',#1075,0.0005);
#69=CYLINDRICAL_SURFACE('',#1077,0.0005);
#70=CYLINDRICAL_SURFACE('',#1079,0.0005);
#71=CYLINDRICAL_SURFACE('',#1081,0.0005);
#72=CYLINDRICAL_SURFACE('',#1083,0.0005);
#73=CYLINDRICAL_SURFACE('',#1085,0.0005);
#74=CYLINDRICAL_SURFACE('',#1086,0.0005);
#75=CYLINDRICAL_SURFACE('',#1089,0.0005);
#76=CYLINDRICAL_SURFACE('',#1091,0.0005);
#77=CYLINDRICAL_SURFACE('',#1093,0.0005);
#78=CYLINDRICAL_SURFACE('',#1094,0.0005);
#79=CYLINDRICAL_SURFACE('',#1097,0.0005);
#80=CYLINDRICAL_SURFACE('',#1099,0.0005);
#81=CYLINDRICAL_SURFACE('',#1101,0.0005);
#82=ORIENTED_EDGE('',*,*,#350,.T.);
#83=ORIENTED_EDGE('',*,*,#351,.T.);
#84=ORIENTED_EDGE('',*,*,#352,.T.);
#85=ORIENTED_EDGE('',*,*,#353,.T.);
#86=ORIENTED_EDGE('',*,*,#354,.F.);
#87=ORIENTED_EDGE('',*,*,#355,.T.);
#88=ORIENTED_EDGE('',*,*,#356,.T.);
#89=ORIENTED_EDGE('',*,*,#357,.T.);
#90=ORIENTED_EDGE('',*,*,#358,.T.);
#91=ORIENTED_EDGE('',*,*,#359,.T.);
#92=ORIENTED_EDGE('',*,*,#360,.F.);
#93=ORIENTED_EDGE('',*,*,#361,.T.);
#94=ORIENTED_EDGE('',*,*,#362,.T.);
#95=ORIENTED_EDGE('',*,*,#363,.T.);
#96=ORIENTED_EDGE('',*,*,#364,.F.);
#97=ORIENTED_EDGE('',*,*,#365,.T.);
#98=ORIENTED_EDGE('',*,*,#364,.T.);
#99=ORIENTED_EDGE('',*,*,#366,.T.);
#100=ORIENTED_EDGE('',*,*,#367,.F.);
#101=ORIENTED_EDGE('',*,*,#368,.F.);
#102=ORIENTED_EDGE('',*,*,#367,.T.);
#103=ORIENTED_EDGE('',*,*,#369,.T.);
#104=ORIENTED_EDGE('',*,*,#370,.F.);
#105=ORIENTED_EDGE('',*,*,#371,.F.);
#106=ORIENTED_EDGE('',*,*,#372,.T.);
#107=ORIENTED_EDGE('',*,*,#373,.T.);
#108=ORIENTED_EDGE('',*,*,#374,.F.);
#109=ORIENTED_EDGE('',*,*,#375,.T.);
#110=ORIENTED_EDGE('',*,*,#374,.T.);
#111=ORIENTED_EDGE('',*,*,#376,.T.);
#112=ORIENTED_EDGE('',*,*,#377,.F.);
#113=ORIENTED_EDGE('',*,*,#378,.F.);
#114=ORIENTED_EDGE('',*,*,#377,.T.);
#115=ORIENTED_EDGE('',*,*,#379,.T.);
#116=ORIENTED_EDGE('',*,*,#380,.F.);
#117=ORIENTED_EDGE('',*,*,#381,.F.);
#118=ORIENTED_EDGE('',*,*,#382,.T.);
#119=ORIENTED_EDGE('',*,*,#383,.T.);
#120=ORIENTED_EDGE('',*,*,#384,.F.);
#121=ORIENTED_EDGE('',*,*,#385,.T.);
#122=ORIENTED_EDGE('',*,*,#384,.T.);
#123=ORIENTED_EDGE('',*,*,#386,.T.);
#124=ORIENTED_EDGE('',*,*,#387,.F.);
#125=ORIENTED_EDGE('',*,*,#388,.T.);
#126=ORIENTED_EDGE('',*,*,#387,.T.);
#127=ORIENTED_EDGE('',*,*,#389,.T.);
#128=ORIENTED_EDGE('',*,*,#390,.F.);
#129=ORIENTED_EDGE('',*,*,#391,.F.);
#130=ORIENTED_EDGE('',*,*,#390,.T.);
#131=ORIENTED_EDGE('',*,*,#392,.T.);
#132=ORIENTED_EDGE('',*,*,#393,.F.);
#133=ORIENTED_EDGE('',*,*,#394,.T.);
#134=ORIENTED_EDGE('',*,*,#393,.T.);
#135=ORIENTED_EDGE('',*,*,#395,.T.);
#136=ORIENTED_EDGE('',*,*,#396,.F.);
#137=ORIENTED_EDGE('',*,*,#397,.T.);
#138=ORIENTED_EDGE('',*,*,#396,.T.);
#139=ORIENTED_EDGE('',*,*,#398,.T.);
#140=ORIENTED_EDGE('',*,*,#399,.F.);
#141=ORIENTED_EDGE('',*,*,#400,.T.);
#142=ORIENTED_EDGE('',*,*,#399,.T.);
#143=ORIENTED_EDGE('',*,*,#401,.T.);
#144=ORIENTED_EDGE('',*,*,#402,.F.);
#145=ORIENTED_EDGE('',*,*,#403,.F.);
#146=ORIENTED_EDGE('',*,*,#370,.T.);
#147=ORIENTED_EDGE('',*,*,#404,.T.);
#148=ORIENTED_EDGE('',*,*,#362,.F.);
#149=ORIENTED_EDGE('',*,*,#405,.T.);
#150=ORIENTED_EDGE('',*,*,#380,.T.);
#151=ORIENTED_EDGE('',*,*,#406,.T.);
#152=ORIENTED_EDGE('',*,*,#372,.F.);
#153=ORIENTED_EDGE('',*,*,#407,.T.);
#154=ORIENTED_EDGE('',*,*,#402,.T.);
#155=ORIENTED_EDGE('',*,*,#408,.T.);
#156=ORIENTED_EDGE('',*,*,#382,.F.);
#157=ORIENTED_EDGE('',*,*,#409,.F.);
#158=ORIENTED_EDGE('',*,*,#410,.T.);
#159=ORIENTED_EDGE('',*,*,#411,.T.);
#160=ORIENTED_EDGE('',*,*,#412,.T.);
#161=ORIENTED_EDGE('',*,*,#413,.T.);
#162=ORIENTED_EDGE('',*,*,#414,.T.);
#163=ORIENTED_EDGE('',*,*,#415,.T.);
#164=ORIENTED_EDGE('',*,*,#416,.T.);
#165=ORIENTED_EDGE('',*,*,#417,.T.);
#166=ORIENTED_EDGE('',*,*,#418,.F.);
#167=ORIENTED_EDGE('',*,*,#419,.F.);
#168=ORIENTED_EDGE('',*,*,#420,.T.);
#169=ORIENTED_EDGE('',*,*,#421,.T.);
#170=ORIENTED_EDGE('',*,*,#413,.F.);
#171=ORIENTED_EDGE('',*,*,#411,.F.);
#172=ORIENTED_EDGE('',*,*,#385,.F.);
#173=ORIENTED_EDGE('',*,*,#388,.F.);
#174=ORIENTED_EDGE('',*,*,#391,.T.);
#175=ORIENTED_EDGE('',*,*,#394,.F.);
#176=ORIENTED_EDGE('',*,*,#397,.F.);
#177=ORIENTED_EDGE('',*,*,#400,.F.);
#178=ORIENTED_EDGE('',*,*,#403,.T.);
#179=ORIENTED_EDGE('',*,*,#409,.T.);
#180=ORIENTED_EDGE('',*,*,#375,.F.);
#181=ORIENTED_EDGE('',*,*,#378,.T.);
#182=ORIENTED_EDGE('',*,*,#381,.T.);
#183=ORIENTED_EDGE('',*,*,#407,.F.);
#184=ORIENTED_EDGE('',*,*,#365,.F.);
#185=ORIENTED_EDGE('',*,*,#368,.T.);
#186=ORIENTED_EDGE('',*,*,#371,.T.);
#187=ORIENTED_EDGE('',*,*,#405,.F.);
#188=ORIENTED_EDGE('',*,*,#422,.T.);
#189=ORIENTED_EDGE('',*,*,#423,.T.);
#190=ORIENTED_EDGE('',*,*,#424,.T.);
#191=ORIENTED_EDGE('',*,*,#425,.T.);
#192=ORIENTED_EDGE('',*,*,#426,.T.);
#193=ORIENTED_EDGE('',*,*,#427,.T.);
#194=ORIENTED_EDGE('',*,*,#428,.T.);
#195=ORIENTED_EDGE('',*,*,#429,.T.);
#196=ORIENTED_EDGE('',*,*,#430,.T.);
#197=ORIENTED_EDGE('',*,*,#431,.T.);
#198=ORIENTED_EDGE('',*,*,#432,.T.);
#199=ORIENTED_EDGE('',*,*,#433,.T.);
#200=ORIENTED_EDGE('',*,*,#434,.T.);
#201=ORIENTED_EDGE('',*,*,#435,.T.);
#202=ORIENTED_EDGE('',*,*,#436,.T.);
#203=ORIENTED_EDGE('',*,*,#437,.T.);
#204=ORIENTED_EDGE('',*,*,#438,.T.);
#205=ORIENTED_EDGE('',*,*,#439,.T.);
#206=ORIENTED_EDGE('',*,*,#440,.T.);
#207=ORIENTED_EDGE('',*,*,#441,.T.);
#208=ORIENTED_EDGE('',*,*,#442,.T.);
#209=ORIENTED_EDGE('',*,*,#443,.T.);
#210=ORIENTED_EDGE('',*,*,#444,.T.);
#211=ORIENTED_EDGE('',*,*,#418,.T.);
#212=ORIENTED_EDGE('',*,*,#445,.F.);
#213=ORIENTED_EDGE('',*,*,#446,.T.);
#214=ORIENTED_EDGE('',*,*,#421,.F.);
#215=ORIENTED_EDGE('',*,*,#447,.F.);
#216=ORIENTED_EDGE('',*,*,#448,.F.);
#217=ORIENTED_EDGE('',*,*,#445,.T.);
#218=ORIENTED_EDGE('',*,*,#420,.F.);
#219=ORIENTED_EDGE('',*,*,#449,.F.);
#220=ORIENTED_EDGE('',*,*,#450,.F.);
#221=ORIENTED_EDGE('',*,*,#447,.T.);
#222=ORIENTED_EDGE('',*,*,#449,.T.);
#223=ORIENTED_EDGE('',*,*,#419,.T.);
#224=ORIENTED_EDGE('',*,*,#444,.F.);
#225=ORIENTED_EDGE('',*,*,#451,.T.);
#226=ORIENTED_EDGE('',*,*,#446,.F.);
#227=ORIENTED_EDGE('',*,*,#448,.T.);
#228=ORIENTED_EDGE('',*,*,#450,.T.);
#229=ORIENTED_EDGE('',*,*,#451,.F.);
#230=ORIENTED_EDGE('',*,*,#360,.T.);
#231=ORIENTED_EDGE('',*,*,#452,.T.);
#232=ORIENTED_EDGE('',*,*,#414,.F.);
#233=ORIENTED_EDGE('',*,*,#453,.T.);
#234=ORIENTED_EDGE('',*,*,#350,.F.);
#235=ORIENTED_EDGE('',*,*,#454,.T.);
#236=ORIENTED_EDGE('',*,*,#354,.T.);
#237=ORIENTED_EDGE('',*,*,#455,.T.);
#238=ORIENTED_EDGE('',*,*,#456,.F.);
#239=ORIENTED_EDGE('',*,*,#355,.F.);
#240=ORIENTED_EDGE('',*,*,#454,.F.);
#241=ORIENTED_EDGE('',*,*,#353,.F.);
#242=ORIENTED_EDGE('',*,*,#457,.F.);
#243=ORIENTED_EDGE('',*,*,#456,.T.);
#244=ORIENTED_EDGE('',*,*,#458,.F.);
#245=ORIENTED_EDGE('',*,*,#453,.F.);
#246=ORIENTED_EDGE('',*,*,#417,.F.);
#247=ORIENTED_EDGE('',*,*,#459,.F.);
#248=ORIENTED_EDGE('',*,*,#351,.F.);
#249=ORIENTED_EDGE('',*,*,#458,.T.);
#250=ORIENTED_EDGE('',*,*,#352,.F.);
#251=ORIENTED_EDGE('',*,*,#460,.F.);
#252=ORIENTED_EDGE('',*,*,#425,.F.);
#253=ORIENTED_EDGE('',*,*,#457,.T.);
#254=ORIENTED_EDGE('',*,*,#424,.F.);
#255=ORIENTED_EDGE('',*,*,#461,.F.);
#256=ORIENTED_EDGE('',*,*,#356,.F.);
#257=ORIENTED_EDGE('',*,*,#455,.F.);
#258=ORIENTED_EDGE('',*,*,#357,.F.);
#259=ORIENTED_EDGE('',*,*,#462,.F.);
#260=ORIENTED_EDGE('',*,*,#361,.F.);
#261=ORIENTED_EDGE('',*,*,#460,.T.);
#262=ORIENTED_EDGE('',*,*,#459,.T.);
#263=ORIENTED_EDGE('',*,*,#463,.F.);
#264=ORIENTED_EDGE('',*,*,#462,.T.);
#265=ORIENTED_EDGE('',*,*,#461,.T.);
#266=ORIENTED_EDGE('',*,*,#464,.F.);
#267=ORIENTED_EDGE('',*,*,#463,.T.);
#268=ORIENTED_EDGE('',*,*,#416,.F.);
#269=ORIENTED_EDGE('',*,*,#465,.F.);
#270=ORIENTED_EDGE('',*,*,#422,.F.);
#271=ORIENTED_EDGE('',*,*,#464,.T.);
#272=ORIENTED_EDGE('',*,*,#423,.F.);
#273=ORIENTED_EDGE('',*,*,#466,.F.);
#274=ORIENTED_EDGE('',*,*,#358,.F.);
#275=ORIENTED_EDGE('',*,*,#466,.T.);
#276=ORIENTED_EDGE('',*,*,#465,.T.);
#277=ORIENTED_EDGE('',*,*,#467,.F.);
#278=ORIENTED_EDGE('',*,*,#452,.F.);
#279=ORIENTED_EDGE('',*,*,#359,.F.);
#280=ORIENTED_EDGE('',*,*,#467,.T.);
#281=ORIENTED_EDGE('',*,*,#415,.F.);
#282=ORIENTED_EDGE('',*,*,#410,.F.);
#283=ORIENTED_EDGE('',*,*,#426,.F.);
#284=ORIENTED_EDGE('',*,*,#412,.F.);
#285=ORIENTED_EDGE('',*,*,#427,.F.);
#286=ORIENTED_EDGE('',*,*,#468,.F.);
#287=ORIENTED_EDGE('',*,*,#408,.F.);
#288=ORIENTED_EDGE('',*,*,#469,.F.);
#289=ORIENTED_EDGE('',*,*,#435,.F.);
#290=ORIENTED_EDGE('',*,*,#469,.T.);
#291=ORIENTED_EDGE('',*,*,#401,.F.);
#292=ORIENTED_EDGE('',*,*,#470,.F.);
#293=ORIENTED_EDGE('',*,*,#428,.F.);
#294=ORIENTED_EDGE('',*,*,#468,.T.);
#295=ORIENTED_EDGE('',*,*,#434,.F.);
#296=ORIENTED_EDGE('',*,*,#471,.F.);
#297=ORIENTED_EDGE('',*,*,#383,.F.);
#298=ORIENTED_EDGE('',*,*,#470,.T.);
#299=ORIENTED_EDGE('',*,*,#398,.F.);
#300=ORIENTED_EDGE('',*,*,#472,.F.);
#301=ORIENTED_EDGE('',*,*,#429,.F.);
#302=ORIENTED_EDGE('',*,*,#471,.T.);
#303=ORIENTED_EDGE('',*,*,#433,.F.);
#304=ORIENTED_EDGE('',*,*,#473,.F.);
#305=ORIENTED_EDGE('',*,*,#386,.F.);
#306=ORIENTED_EDGE('',*,*,#472,.T.);
#307=ORIENTED_EDGE('',*,*,#395,.F.);
#308=ORIENTED_EDGE('',*,*,#474,.F.);
#309=ORIENTED_EDGE('',*,*,#430,.F.);
#310=ORIENTED_EDGE('',*,*,#473,.T.);
#311=ORIENTED_EDGE('',*,*,#432,.F.);
#312=ORIENTED_EDGE('',*,*,#475,.F.);
#313=ORIENTED_EDGE('',*,*,#389,.F.);
#314=ORIENTED_EDGE('',*,*,#474,.T.);
#315=ORIENTED_EDGE('',*,*,#392,.F.);
#316=ORIENTED_EDGE('',*,*,#475,.T.);
#317=ORIENTED_EDGE('',*,*,#431,.F.);
#318=ORIENTED_EDGE('',*,*,#476,.F.);
#319=ORIENTED_EDGE('',*,*,#436,.F.);
#320=ORIENTED_EDGE('',*,*,#477,.F.);
#321=ORIENTED_EDGE('',*,*,#373,.F.);
#322=ORIENTED_EDGE('',*,*,#477,.T.);
#323=ORIENTED_EDGE('',*,*,#439,.F.);
#324=ORIENTED_EDGE('',*,*,#478,.F.);
#325=ORIENTED_EDGE('',*,*,#376,.F.);
#326=ORIENTED_EDGE('',*,*,#476,.T.);
#327=ORIENTED_EDGE('',*,*,#406,.F.);
#328=ORIENTED_EDGE('',*,*,#479,.F.);
#329=ORIENTED_EDGE('',*,*,#437,.F.);
#330=ORIENTED_EDGE('',*,*,#478,.T.);
#331=ORIENTED_EDGE('',*,*,#438,.F.);
#332=ORIENTED_EDGE('',*,*,#479,.T.);
#333=ORIENTED_EDGE('',*,*,#379,.F.);
#334=ORIENTED_EDGE('',*,*,#480,.F.);
#335=ORIENTED_EDGE('',*,*,#440,.F.);
#336=ORIENTED_EDGE('',*,*,#481,.F.);
#337=ORIENTED_EDGE('',*,*,#363,.F.);
#338=ORIENTED_EDGE('',*,*,#481,.T.);
#339=ORIENTED_EDGE('',*,*,#443,.F.);
#340=ORIENTED_EDGE('',*,*,#482,.F.);
#341=ORIENTED_EDGE('',*,*,#366,.F.);
#342=ORIENTED_EDGE('',*,*,#480,.T.);
#343=ORIENTED_EDGE('',*,*,#404,.F.);
#344=ORIENTED_EDGE('',*,*,#483,.F.);
#345=ORIENTED_EDGE('',*,*,#441,.F.);
#346=ORIENTED_EDGE('',*,*,#482,.T.);
#347=ORIENTED_EDGE('',*,*,#442,.F.);
#348=ORIENTED_EDGE('',*,*,#483,.T.);
#349=ORIENTED_EDGE('',*,*,#369,.F.);
#350=EDGE_CURVE('',#484,#485,#566,.T.);
#351=EDGE_CURVE('',#485,#486,#567,.T.);
#352=EDGE_CURVE('',#486,#487,#568,.F.);
#353=EDGE_CURVE('',#487,#484,#569,.F.);
#354=EDGE_CURVE('',#488,#489,#570,.T.);
#355=EDGE_CURVE('',#488,#490,#571,.T.);
#356=EDGE_CURVE('',#490,#491,#572,.T.);
#357=EDGE_CURVE('',#491,#489,#573,.F.);
#358=EDGE_CURVE('',#492,#493,#574,.T.);
#359=EDGE_CURVE('',#493,#494,#575,.F.);
#360=EDGE_CURVE('',#495,#494,#576,.T.);
#361=EDGE_CURVE('',#495,#492,#577,.T.);
#362=EDGE_CURVE('',#496,#497,#578,.T.);
#363=EDGE_CURVE('',#497,#498,#579,.F.);
#364=EDGE_CURVE('',#499,#498,#580,.T.);
#365=EDGE_CURVE('',#499,#496,#581,.T.);
#366=EDGE_CURVE('',#498,#500,#582,.T.);
#367=EDGE_CURVE('',#501,#500,#583,.T.);
#368=EDGE_CURVE('',#499,#501,#584,.T.);
#369=EDGE_CURVE('',#500,#502,#585,.T.);
#370=EDGE_CURVE('',#503,#502,#586,.T.);
#371=EDGE_CURVE('',#501,#503,#587,.T.);
#372=EDGE_CURVE('',#504,#505,#588,.T.);
#373=EDGE_CURVE('',#505,#506,#589,.F.);
#374=EDGE_CURVE('',#507,#506,#590,.T.);
#375=EDGE_CURVE('',#507,#504,#591,.T.);
#376=EDGE_CURVE('',#506,#508,#592,.T.);
#377=EDGE_CURVE('',#509,#508,#593,.T.);
#378=EDGE_CURVE('',#507,#509,#594,.T.);
#379=EDGE_CURVE('',#508,#510,#595,.T.);
#380=EDGE_CURVE('',#511,#510,#596,.T.);
#381=EDGE_CURVE('',#509,#511,#597,.T.);
#382=EDGE_CURVE('',#512,#513,#598,.T.);
#383=EDGE_CURVE('',#513,#514,#599,.F.);
#384=EDGE_CURVE('',#515,#514,#600,.T.);
#385=EDGE_CURVE('',#515,#512,#601,.T.);
#386=EDGE_CURVE('',#514,#516,#602,.F.);
#387=EDGE_CURVE('',#517,#516,#603,.T.);
#388=EDGE_CURVE('',#517,#515,#604,.T.);
#389=EDGE_CURVE('',#516,#518,#605,.T.);
#390=EDGE_CURVE('',#519,#518,#606,.T.);
#391=EDGE_CURVE('',#517,#519,#607,.T.);
#392=EDGE_CURVE('',#518,#520,#608,.F.);
#393=EDGE_CURVE('',#521,#520,#609,.T.);
#394=EDGE_CURVE('',#521,#519,#610,.T.);
#395=EDGE_CURVE('',#520,#522,#611,.F.);
#396=EDGE_CURVE('',#523,#522,#612,.T.);
#397=EDGE_CURVE('',#523,#521,#613,.T.);
#398=EDGE_CURVE('',#522,#524,#614,.F.);
#399=EDGE_CURVE('',#525,#524,#615,.T.);
#400=EDGE_CURVE('',#525,#523,#616,.T.);
#401=EDGE_CURVE('',#524,#526,#617,.T.);
#402=EDGE_CURVE('',#527,#526,#618,.T.);
#403=EDGE_CURVE('',#525,#527,#619,.T.);
#404=EDGE_CURVE('',#502,#497,#620,.F.);
#405=EDGE_CURVE('',#496,#503,#621,.T.);
#406=EDGE_CURVE('',#510,#505,#622,.F.);
#407=EDGE_CURVE('',#504,#511,#623,.T.);
#408=EDGE_CURVE('',#526,#513,#624,.T.);
#409=EDGE_CURVE('',#527,#512,#625,.T.);
#410=EDGE_CURVE('',#528,#528,#34,.F.);
#411=EDGE_CURVE('',#529,#529,#35,.T.);
#412=EDGE_CURVE('',#530,#530,#36,.F.);
#413=EDGE_CURVE('',#531,#531,#37,.T.);
#414=EDGE_CURVE('',#532,#533,#626,.T.);
#415=EDGE_CURVE('',#533,#534,#627,.T.);
#416=EDGE_CURVE('',#534,#535,#628,.F.);
#417=EDGE_CURVE('',#535,#532,#629,.F.);
#418=EDGE_CURVE('',#536,#537,#630,.T.);
#419=EDGE_CURVE('',#538,#536,#631,.T.);
#420=EDGE_CURVE('',#538,#539,#632,.T.);
#421=EDGE_CURVE('',#539,#537,#633,.T.);
#422=EDGE_CURVE('',#540,#541,#634,.T.);
#423=EDGE_CURVE('',#541,#542,#635,.F.);
#424=EDGE_CURVE('',#542,#543,#636,.F.);
#425=EDGE_CURVE('',#543,#540,#637,.T.);
#426=EDGE_CURVE('',#544,#544,#38,.T.);
#427=EDGE_CURVE('',#545,#545,#39,.T.);
#428=EDGE_CURVE('',#546,#547,#638,.F.);
#429=EDGE_CURVE('',#547,#548,#639,.T.);
#430=EDGE_CURVE('',#548,#549,#640,.T.);
#431=EDGE_CURVE('',#549,#550,#641,.T.);
#432=EDGE_CURVE('',#550,#551,#642,.F.);
#433=EDGE_CURVE('',#551,#552,#643,.T.);
#434=EDGE_CURVE('',#552,#553,#644,.T.);
#435=EDGE_CURVE('',#553,#546,#645,.F.);
#436=EDGE_CURVE('',#554,#555,#646,.T.);
#437=EDGE_CURVE('',#555,#556,#647,.T.);
#438=EDGE_CURVE('',#556,#557,#648,.F.);
#439=EDGE_CURVE('',#557,#554,#649,.F.);
#440=EDGE_CURVE('',#558,#559,#650,.T.);
#441=EDGE_CURVE('',#559,#560,#651,.T.);
#442=EDGE_CURVE('',#560,#561,#652,.F.);
#443=EDGE_CURVE('',#561,#558,#653,.F.);
#444=EDGE_CURVE('',#562,#536,#654,.T.);
#445=EDGE_CURVE('',#563,#537,#655,.T.);
#446=EDGE_CURVE('',#563,#562,#656,.T.);
#447=EDGE_CURVE('',#564,#539,#657,.T.);
#448=EDGE_CURVE('',#563,#564,#658,.T.);
#449=EDGE_CURVE('',#565,#538,#659,.T.);
#450=EDGE_CURVE('',#564,#565,#660,.T.);
#451=EDGE_CURVE('',#562,#565,#661,.T.);
#452=EDGE_CURVE('',#494,#533,#40,.T.);
#453=EDGE_CURVE('',#532,#485,#41,.T.);
#454=EDGE_CURVE('',#484,#488,#42,.T.);
#455=EDGE_CURVE('',#489,#495,#43,.T.);
#456=EDGE_CURVE('',#490,#487,#44,.T.);
#457=EDGE_CURVE('',#490,#543,#45,.F.);
#458=EDGE_CURVE('',#543,#487,#46,.F.);
#459=EDGE_CURVE('',#486,#535,#47,.T.);
#460=EDGE_CURVE('',#540,#486,#48,.T.);
#461=EDGE_CURVE('',#491,#542,#49,.T.);
#462=EDGE_CURVE('',#492,#491,#50,.T.);
#463=EDGE_CURVE('',#540,#535,#51,.F.);
#464=EDGE_CURVE('',#492,#542,#52,.F.);
#465=EDGE_CURVE('',#541,#534,#53,.T.);
#466=EDGE_CURVE('',#493,#541,#54,.T.);
#467=EDGE_CURVE('',#493,#534,#55,.F.);
#468=EDGE_CURVE('',#513,#553,#12,.T.);
#469=EDGE_CURVE('',#546,#526,#13,.F.);
#470=EDGE_CURVE('',#547,#524,#14,.F.);
#471=EDGE_CURVE('',#514,#552,#15,.T.);
#472=EDGE_CURVE('',#548,#522,#16,.F.);
#473=EDGE_CURVE('',#516,#551,#17,.T.);
#474=EDGE_CURVE('',#549,#520,#18,.F.);
#475=EDGE_CURVE('',#518,#550,#19,.T.);
#476=EDGE_CURVE('',#555,#505,#20,.F.);
#477=EDGE_CURVE('',#506,#554,#21,.T.);
#478=EDGE_CURVE('',#508,#557,#22,.T.);
#479=EDGE_CURVE('',#556,#510,#23,.F.);
#480=EDGE_CURVE('',#559,#497,#24,.F.);
#481=EDGE_CURVE('',#498,#558,#25,.T.);
#482=EDGE_CURVE('',#500,#561,#26,.T.);
#483=EDGE_CURVE('',#560,#502,#27,.F.);
#484=VERTEX_POINT('',#1397);
#485=VERTEX_POINT('',#1398);
#486=VERTEX_POINT('',#1400);
#487=VERTEX_POINT('',#1402);
#488=VERTEX_POINT('',#1406);
#489=VERTEX_POINT('',#1407);
#490=VERTEX_POINT('',#1409);
#491=VERTEX_POINT('',#1411);
#492=VERTEX_POINT('',#1415);
#493=VERTEX_POINT('',#1416);
#494=VERTEX_POINT('',#1418);
#495=VERTEX_POINT('',#1420);
#496=VERTEX_POINT('',#1424);
#497=VERTEX_POINT('',#1425);
#498=VERTEX_POINT('',#1427);
#499=VERTEX_POINT('',#1429);
#500=VERTEX_POINT('',#1433);
#501=VERTEX_POINT('',#1435);
#502=VERTEX_POINT('',#1439);
#503=VERTEX_POINT('',#1441);
#504=VERTEX_POINT('',#1445);
#505=VERTEX_POINT('',#1446);
#506=VERTEX_POINT('',#1448);
#507=VERTEX_POINT('',#1450);
#508=VERTEX_POINT('',#1454);
#509=VERTEX_POINT('',#1456);
#510=VERTEX_POINT('',#1460);
#511=VERTEX_POINT('',#1462);
#512=VERTEX_POINT('',#1466);
#513=VERTEX_POINT('',#1467);
#514=VERTEX_POINT('',#1469);
#515=VERTEX_POINT('',#1471);
#516=VERTEX_POINT('',#1475);
#517=VERTEX_POINT('',#1477);
#518=VERTEX_POINT('',#1481);
#519=VERTEX_POINT('',#1483);
#520=VERTEX_POINT('',#1487);
#521=VERTEX_POINT('',#1489);
#522=VERTEX_POINT('',#1493);
#523=VERTEX_POINT('',#1495);
#524=VERTEX_POINT('',#1499);
#525=VERTEX_POINT('',#1501);
#526=VERTEX_POINT('',#1505);
#527=VERTEX_POINT('',#1507);
#528=VERTEX_POINT('',#1520);
#529=VERTEX_POINT('',#1522);
#530=VERTEX_POINT('',#1525);
#531=VERTEX_POINT('',#1527);
#532=VERTEX_POINT('',#1530);
#533=VERTEX_POINT('',#1531);
#534=VERTEX_POINT('',#1533);
#535=VERTEX_POINT('',#1535);
#536=VERTEX_POINT('',#1539);
#537=VERTEX_POINT('',#1540);
#538=VERTEX_POINT('',#1542);
#539=VERTEX_POINT('',#1544);
#540=VERTEX_POINT('',#1548);
#541=VERTEX_POINT('',#1549);
#542=VERTEX_POINT('',#1551);
#543=VERTEX_POINT('',#1553);
#544=VERTEX_POINT('',#1556);
#545=VERTEX_POINT('',#1558);
#546=VERTEX_POINT('',#1560);
#547=VERTEX_POINT('',#1561);
#548=VERTEX_POINT('',#1563);
#549=VERTEX_POINT('',#1565);
#550=VERTEX_POINT('',#1567);
#551=VERTEX_POINT('',#1569);
#552=VERTEX_POINT('',#1571);
#553=VERTEX_POINT('',#1573);
#554=VERTEX_POINT('',#1576);
#555=VERTEX_POINT('',#1577);
#556=VERTEX_POINT('',#1579);
#557=VERTEX_POINT('',#1581);
#558=VERTEX_POINT('',#1584);
#559=VERTEX_POINT('',#1585);
#560=VERTEX_POINT('',#1587);
#561=VERTEX_POINT('',#1589);
#562=VERTEX_POINT('',#1593);
#563=VERTEX_POINT('',#1595);
#564=VERTEX_POINT('',#1599);
#565=VERTEX_POINT('',#1603);
#566=LINE('',#1396,#662);
#567=LINE('',#1399,#663);
#568=LINE('',#1401,#664);
#569=LINE('',#1403,#665);
#570=LINE('',#1405,#666);
#571=LINE('',#1408,#667);
#572=LINE('',#1410,#668);
#573=LINE('',#1412,#669);
#574=LINE('',#1414,#670);
#575=LINE('',#1417,#671);
#576=LINE('',#1419,#672);
#577=LINE('',#1421,#673);
#578=LINE('',#1423,#674);
#579=LINE('',#1426,#675);
#580=LINE('',#1428,#676);
#581=LINE('',#1430,#677);
#582=LINE('',#1432,#678);
#583=LINE('',#1434,#679);
#584=LINE('',#1436,#680);
#585=LINE('',#1438,#681);
#586=LINE('',#1440,#682);
#587=LINE('',#1442,#683);
#588=LINE('',#1444,#684);
#589=LINE('',#1447,#685);
#590=LINE('',#1449,#686);
#591=LINE('',#1451,#687);
#592=LINE('',#1453,#688);
#593=LINE('',#1455,#689);
#594=LINE('',#1457,#690);
#595=LINE('',#1459,#691);
#596=LINE('',#1461,#692);
#597=LINE('',#1463,#693);
#598=LINE('',#1465,#694);
#599=LINE('',#1468,#695);
#600=LINE('',#1470,#696);
#601=LINE('',#1472,#697);
#602=LINE('',#1474,#698);
#603=LINE('',#1476,#699);
#604=LINE('',#1478,#700);
#605=LINE('',#1480,#701);
#606=LINE('',#1482,#702);
#607=LINE('',#1484,#703);
#608=LINE('',#1486,#704);
#609=LINE('',#1488,#705);
#610=LINE('',#1490,#706);
#611=LINE('',#1492,#707);
#612=LINE('',#1494,#708);
#613=LINE('',#1496,#709);
#614=LINE('',#1498,#710);
#615=LINE('',#1500,#711);
#616=LINE('',#1502,#712);
#617=LINE('',#1504,#713);
#618=LINE('',#1506,#714);
#619=LINE('',#1508,#715);
#620=LINE('',#1510,#716);
#621=LINE('',#1511,#717);
#622=LINE('',#1513,#718);
#623=LINE('',#1514,#719);
#624=LINE('',#1516,#720);
#625=LINE('',#1517,#721);
#626=LINE('',#1529,#722);
#627=LINE('',#1532,#723);
#628=LINE('',#1534,#724);
#629=LINE('',#1536,#725);
#630=LINE('',#1538,#726);
#631=LINE('',#1541,#727);
#632=LINE('',#1543,#728);
#633=LINE('',#1545,#729);
#634=LINE('',#1547,#730);
#635=LINE('',#1550,#731);
#636=LINE('',#1552,#732);
#637=LINE('',#1554,#733);
#638=LINE('',#1559,#734);
#639=LINE('',#1562,#735);
#640=LINE('',#1564,#736);
#641=LINE('',#1566,#737);
#642=LINE('',#1568,#738);
#643=LINE('',#1570,#739);
#644=LINE('',#1572,#740);
#645=LINE('',#1574,#741);
#646=LINE('',#1575,#742);
#647=LINE('',#1578,#743);
#648=LINE('',#1580,#744);
#649=LINE('',#1582,#745);
#650=LINE('',#1583,#746);
#651=LINE('',#1586,#747);
#652=LINE('',#1588,#748);
#653=LINE('',#1590,#749);
#654=LINE('',#1592,#750);
#655=LINE('',#1594,#751);
#656=LINE('',#1596,#752);
#657=LINE('',#1598,#753);
#658=LINE('',#1600,#754);
#659=LINE('',#1602,#755);
#660=LINE('',#1604,#756);
#661=LINE('',#1606,#757);
#662=VECTOR('',#1106,1.);
#663=VECTOR('',#1107,1.);
#664=VECTOR('',#1108,1.);
#665=VECTOR('',#1109,1.);
#666=VECTOR('',#1112,1.);
#667=VECTOR('',#1113,1.);
#668=VECTOR('',#1114,1.);
#669=VECTOR('',#1115,1.);
#670=VECTOR('',#1118,1.);
#671=VECTOR('',#1119,1.);
#672=VECTOR('',#1120,1.);
#673=VECTOR('',#1121,1.);
#674=VECTOR('',#1124,1.);
#675=VECTOR('',#1125,1.);
#676=VECTOR('',#1126,1.);
#677=VECTOR('',#1127,1.);
#678=VECTOR('',#1130,1.);
#679=VECTOR('',#1131,1.);
#680=VECTOR('',#1132,1.);
#681=VECTOR('',#1135,1.);
#682=VECTOR('',#1136,1.);
#683=VECTOR('',#1137,1.);
#684=VECTOR('',#1140,1.);
#685=VECTOR('',#1141,1.);
#686=VECTOR('',#1142,1.);
#687=VECTOR('',#1143,1.);
#688=VECTOR('',#1146,1.);
#689=VECTOR('',#1147,1.);
#690=VECTOR('',#1148,1.);
#691=VECTOR('',#1151,1.);
#692=VECTOR('',#1152,1.);
#693=VECTOR('',#1153,1.);
#694=VECTOR('',#1156,1.);
#695=VECTOR('',#1157,1.);
#696=VECTOR('',#1158,1.);
#697=VECTOR('',#1159,1.);
#698=VECTOR('',#1162,1.);
#699=VECTOR('',#1163,1.);
#700=VECTOR('',#1164,1.);
#701=VECTOR('',#1167,1.);
#702=VECTOR('',#1168,1.);
#703=VECTOR('',#1169,1.);
#704=VECTOR('',#1172,1.);
#705=VECTOR('',#1173,1.);
#706=VECTOR('',#1174,1.);
#707=VECTOR('',#1177,1.);
#708=VECTOR('',#1178,1.);
#709=VECTOR('',#1179,1.);
#710=VECTOR('',#1182,1.);
#711=VECTOR('',#1183,1.);
#712=VECTOR('',#1184,1.);
#713=VECTOR('',#1187,1.);
#714=VECTOR('',#1188,1.);
#715=VECTOR('',#1189,1.);
#716=VECTOR('',#1192,1.);
#717=VECTOR('',#1193,1.);
#718=VECTOR('',#1196,1.);
#719=VECTOR('',#1197,1.);
#720=VECTOR('',#1200,1.);
#721=VECTOR('',#1201,1.);
#722=VECTOR('',#1216,1.);
#723=VECTOR('',#1217,1.);
#724=VECTOR('',#1218,1.);
#725=VECTOR('',#1219,1.);
#726=VECTOR('',#1222,1.);
#727=VECTOR('',#1223,1.);
#728=VECTOR('',#1224,1.);
#729=VECTOR('',#1225,1.);
#730=VECTOR('',#1228,1.);
#731=VECTOR('',#1229,1.);
#732=VECTOR('',#1230,1.);
#733=VECTOR('',#1231,1.);
#734=VECTOR('',#1236,1.);
#735=VECTOR('',#1237,1.);
#736=VECTOR('',#1238,1.);
#737=VECTOR('',#1239,1.);
#738=VECTOR('',#1240,1.);
#739=VECTOR('',#1241,1.);
#740=VECTOR('',#1242,1.);
#741=VECTOR('',#1243,1.);
#742=VECTOR('',#1244,1.);
#743=VECTOR('',#1245,1.);
#744=VECTOR('',#1246,1.);
#745=VECTOR('',#1247,1.);
#746=VECTOR('',#1248,1.);
#747=VECTOR('',#1249,1.);
#748=VECTOR('',#1250,1.);
#749=VECTOR('',#1251,1.);
#750=VECTOR('',#1254,1.);
#751=VECTOR('',#1255,1.);
#752=VECTOR('',#1256,1.);
#753=VECTOR('',#1259,1.);
#754=VECTOR('',#1260,1.);
#755=VECTOR('',#1263,1.);
#756=VECTOR('',#1264,1.);
#757=VECTOR('',#1267,1.);
#758=EDGE_LOOP('',(#82,#83,#84,#85));
#759=EDGE_LOOP('',(#86,#87,#88,#89));
#760=EDGE_LOOP('',(#90,#91,#92,#93));
#761=EDGE_LOOP('',(#94,#95,#96,#97));
#762=EDGE_LOOP('',(#98,#99,#100,#101));
#763=EDGE_LOOP('',(#102,#103,#104,#105));
#764=EDGE_LOOP('',(#106,#107,#108,#109));
#765=EDGE_LOOP('',(#110,#111,#112,#113));
#766=EDGE_LOOP('',(#114,#115,#116,#117));
#767=EDGE_LOOP('',(#118,#119,#120,#121));
#768=EDGE_LOOP('',(#122,#123,#124,#125));
#769=EDGE_LOOP('',(#126,#127,#128,#129));
#770=EDGE_LOOP('',(#130,#131,#132,#133));
#771=EDGE_LOOP('',(#134,#135,#136,#137));
#772=EDGE_LOOP('',(#138,#139,#140,#141));
#773=EDGE_LOOP('',(#142,#143,#144,#145));
#774=EDGE_LOOP('',(#146,#147,#148,#149));
#775=EDGE_LOOP('',(#150,#151,#152,#153));
#776=EDGE_LOOP('',(#154,#155,#156,#157));
#777=EDGE_LOOP('',(#158));
#778=EDGE_LOOP('',(#159));
#779=EDGE_LOOP('',(#160));
#780=EDGE_LOOP('',(#161));
#781=EDGE_LOOP('',(#162,#163,#164,#165));
#782=EDGE_LOOP('',(#166,#167,#168,#169));
#783=EDGE_LOOP('',(#170));
#784=EDGE_LOOP('',(#171));
#785=EDGE_LOOP('',(#172,#173,#174,#175,#176,#177,#178,#179));
#786=EDGE_LOOP('',(#180,#181,#182,#183));
#787=EDGE_LOOP('',(#184,#185,#186,#187));
#788=EDGE_LOOP('',(#188,#189,#190,#191));
#789=EDGE_LOOP('',(#192));
#790=EDGE_LOOP('',(#193));
#791=EDGE_LOOP('',(#194,#195,#196,#197,#198,#199,#200,#201));
#792=EDGE_LOOP('',(#202,#203,#204,#205));
#793=EDGE_LOOP('',(#206,#207,#208,#209));
#794=EDGE_LOOP('',(#210,#211,#212,#213));
#795=EDGE_LOOP('',(#214,#215,#216,#217));
#796=EDGE_LOOP('',(#218,#219,#220,#221));
#797=EDGE_LOOP('',(#222,#223,#224,#225));
#798=EDGE_LOOP('',(#226,#227,#228,#229));
#799=EDGE_LOOP('',(#230,#231,#232,#233,#234,#235,#236,#237));
#800=EDGE_LOOP('',(#238,#239,#240,#241));
#801=EDGE_LOOP('',(#242,#243,#244));
#802=EDGE_LOOP('',(#245,#246,#247,#248));
#803=EDGE_LOOP('',(#249,#250,#251,#252));
#804=EDGE_LOOP('',(#253,#254,#255,#256));
#805=EDGE_LOOP('',(#257,#258,#259,#260));
#806=EDGE_LOOP('',(#261,#262,#263));
#807=EDGE_LOOP('',(#264,#265,#266));
#808=EDGE_LOOP('',(#267,#268,#269,#270));
#809=EDGE_LOOP('',(#271,#272,#273,#274));
#810=EDGE_LOOP('',(#275,#276,#277));
#811=EDGE_LOOP('',(#278,#279,#280,#281));
#812=EDGE_LOOP('',(#282));
#813=EDGE_LOOP('',(#283));
#814=EDGE_LOOP('',(#284));
#815=EDGE_LOOP('',(#285));
#816=EDGE_LOOP('',(#286,#287,#288,#289));
#817=EDGE_LOOP('',(#290,#291,#292,#293));
#818=EDGE_LOOP('',(#294,#295,#296,#297));
#819=EDGE_LOOP('',(#298,#299,#300,#301));
#820=EDGE_LOOP('',(#302,#303,#304,#305));
#821=EDGE_LOOP('',(#306,#307,#308,#309));
#822=EDGE_LOOP('',(#310,#311,#312,#313));
#823=EDGE_LOOP('',(#314,#315,#316,#317));
#824=EDGE_LOOP('',(#318,#319,#320,#321));
#825=EDGE_LOOP('',(#322,#323,#324,#325));
#826=EDGE_LOOP('',(#326,#327,#328,#329));
#827=EDGE_LOOP('',(#330,#331,#332,#333));
#828=EDGE_LOOP('',(#334,#335,#336,#337));
#829=EDGE_LOOP('',(#338,#339,#340,#341));
#830=EDGE_LOOP('',(#342,#343,#344,#345));
#831=EDGE_LOOP('',(#346,#347,#348,#349));
#832=FACE_BOUND('',#758,.T.);
#833=FACE_BOUND('',#759,.T.);
#834=FACE_BOUND('',#760,.T.);
#835=FACE_BOUND('',#761,.T.);
#836=FACE_BOUND('',#762,.T.);
#837=FACE_BOUND('',#763,.T.);
#838=FACE_BOUND('',#764,.T.);
#839=FACE_BOUND('',#765,.T.);
#840=FACE_BOUND('',#766,.T.);
#841=FACE_BOUND('',#767,.T.);
#842=FACE_BOUND('',#768,.T.);
#843=FACE_BOUND('',#769,.T.);
#844=FACE_BOUND('',#770,.T.);
#845=FACE_BOUND('',#771,.T.);
#846=FACE_BOUND('',#772,.T.);
#847=FACE_BOUND('',#773,.T.);
#848=FACE_BOUND('',#774,.T.);
#849=FACE_BOUND('',#775,.T.);
#850=FACE_BOUND('',#776,.T.);
#851=FACE_BOUND('',#777,.T.);
#852=FACE_BOUND('',#778,.T.);
#853=FACE_BOUND('',#779,.T.);
#854=FACE_BOUND('',#780,.T.);
#855=FACE_BOUND('',#781,.T.);
#856=FACE_BOUND('',#782,.T.);
#857=FACE_BOUND('',#783,.T.);
#858=FACE_BOUND('',#784,.T.);
#859=FACE_BOUND('',#785,.T.);
#860=FACE_BOUND('',#786,.T.);
#861=FACE_BOUND('',#787,.T.);
#862=FACE_BOUND('',#788,.T.);
#863=FACE_BOUND('',#789,.T.);
#864=FACE_BOUND('',#790,.T.);
#865=FACE_BOUND('',#791,.T.);
#866=FACE_BOUND('',#792,.T.);
#867=FACE_BOUND('',#793,.T.);
#868=FACE_BOUND('',#794,.T.);
#869=FACE_BOUND('',#795,.T.);
#870=FACE_BOUND('',#796,.T.);
#871=FACE_BOUND('',#797,.T.);
#872=FACE_BOUND('',#798,.T.);
#873=FACE_BOUND('',#799,.T.);
#874=FACE_BOUND('',#800,.T.);
#875=FACE_BOUND('',#801,.T.);
#876=FACE_BOUND('',#802,.T.);
#877=FACE_BOUND('',#803,.T.);
#878=FACE_BOUND('',#804,.T.);
#879=FACE_BOUND('',#805,.T.);
#880=FACE_BOUND('',#806,.T.);
#881=FACE_BOUND('',#807,.T.);
#882=FACE_BOUND('',#808,.T.);
#883=FACE_BOUND('',#809,.T.);
#884=FACE_BOUND('',#810,.T.);
#885=FACE_BOUND('',#811,.T.);
#886=FACE_BOUND('',#812,.T.);
#887=FACE_BOUND('',#813,.T.);
#888=FACE_BOUND('',#814,.T.);
#889=FACE_BOUND('',#815,.T.);
#890=FACE_BOUND('',#816,.T.);
#891=FACE_BOUND('',#817,.T.);
#892=FACE_BOUND('',#818,.T.);
#893=FACE_BOUND('',#819,.T.);
#894=FACE_BOUND('',#820,.T.);
#895=FACE_BOUND('',#821,.T.);
#896=FACE_BOUND('',#822,.T.);
#897=FACE_BOUND('',#823,.T.);
#898=FACE_BOUND('',#824,.T.);
#899=FACE_BOUND('',#825,.T.);
#900=FACE_BOUND('',#826,.T.);
#901=FACE_BOUND('',#827,.T.);
#902=FACE_BOUND('',#828,.T.);
#903=FACE_BOUND('',#829,.T.);
#904=FACE_BOUND('',#830,.T.);
#905=FACE_BOUND('',#831,.T.);
#906=PLANE('',#1005);
#907=PLANE('',#1006);
#908=PLANE('',#1007);
#909=PLANE('',#1008);
#910=PLANE('',#1009);
#911=PLANE('',#1010);
#912=PLANE('',#1011);
#913=PLANE('',#1012);
#914=PLANE('',#1013);
#915=PLANE('',#1014);
#916=PLANE('',#1015);
#917=PLANE('',#1016);
#918=PLANE('',#1017);
#919=PLANE('',#1018);
#920=PLANE('',#1019);
#921=PLANE('',#1020);
#922=PLANE('',#1021);
#923=PLANE('',#1022);
#924=PLANE('',#1023);
#925=PLANE('',#1030);
#926=PLANE('',#1031);
#927=PLANE('',#1032);
#928=PLANE('',#1035);
#929=PLANE('',#1036);
#930=PLANE('',#1037);
#931=PLANE('',#1038);
#932=PLANE('',#1039);
#933=ADVANCED_FACE('',(#832),#906,.T.);
#934=ADVANCED_FACE('',(#833),#907,.F.);
#935=ADVANCED_FACE('',(#834),#908,.F.);
#936=ADVANCED_FACE('',(#835),#909,.T.);
#937=ADVANCED_FACE('',(#836),#910,.F.);
#938=ADVANCED_FACE('',(#837),#911,.F.);
#939=ADVANCED_FACE('',(#838),#912,.T.);
#940=ADVANCED_FACE('',(#839),#913,.F.);
#941=ADVANCED_FACE('',(#840),#914,.F.);
#942=ADVANCED_FACE('',(#841),#915,.T.);
#943=ADVANCED_FACE('',(#842),#916,.T.);
#944=ADVANCED_FACE('',(#843),#917,.F.);
#945=ADVANCED_FACE('',(#844),#918,.T.);
#946=ADVANCED_FACE('',(#845),#919,.T.);
#947=ADVANCED_FACE('',(#846),#920,.T.);
#948=ADVANCED_FACE('',(#847),#921,.F.);
#949=ADVANCED_FACE('',(#848),#922,.T.);
#950=ADVANCED_FACE('',(#849),#923,.T.);
#951=ADVANCED_FACE('',(#850),#924,.F.);
#952=ADVANCED_FACE('',(#851,#852),#56,.F.);
#953=ADVANCED_FACE('',(#853,#854),#57,.F.);
#954=ADVANCED_FACE('',(#855),#925,.T.);
#955=ADVANCED_FACE('',(#856,#857,#858,#859,#860,#861),#926,.T.);
#956=ADVANCED_FACE('',(#862,#863,#864,#865,#866,#867),#927,.F.);
#957=ADVANCED_FACE('',(#868),#928,.T.);
#958=ADVANCED_FACE('',(#869),#929,.F.);
#959=ADVANCED_FACE('',(#870),#930,.F.);
#960=ADVANCED_FACE('',(#871),#931,.T.);
#961=ADVANCED_FACE('',(#872,#873),#932,.T.);
#962=ADVANCED_FACE('',(#874),#58,.T.);
#963=ADVANCED_FACE('',(#875),#30,.T.);
#964=ADVANCED_FACE('',(#876),#59,.T.);
#965=ADVANCED_FACE('',(#877),#60,.T.);
#966=ADVANCED_FACE('',(#878),#61,.T.);
#967=ADVANCED_FACE('',(#879),#62,.T.);
#968=ADVANCED_FACE('',(#880),#31,.T.);
#969=ADVANCED_FACE('',(#881),#32,.T.);
#970=ADVANCED_FACE('',(#882),#63,.T.);
#971=ADVANCED_FACE('',(#883),#64,.T.);
#972=ADVANCED_FACE('',(#884),#33,.T.);
#973=ADVANCED_FACE('',(#885),#65,.T.);
#974=ADVANCED_FACE('',(#886,#887),#28,.T.);
#975=ADVANCED_FACE('',(#888,#889),#29,.T.);
#976=ADVANCED_FACE('',(#890),#66,.T.);
#977=ADVANCED_FACE('',(#891),#67,.T.);
#978=ADVANCED_FACE('',(#892),#68,.T.);
#979=ADVANCED_FACE('',(#893),#69,.T.);
#980=ADVANCED_FACE('',(#894),#70,.T.);
#981=ADVANCED_FACE('',(#895),#71,.T.);
#982=ADVANCED_FACE('',(#896),#72,.T.);
#983=ADVANCED_FACE('',(#897),#73,.T.);
#984=ADVANCED_FACE('',(#898),#74,.T.);
#985=ADVANCED_FACE('',(#899),#75,.T.);
#986=ADVANCED_FACE('',(#900),#76,.T.);
#987=ADVANCED_FACE('',(#901),#77,.T.);
#988=ADVANCED_FACE('',(#902),#78,.T.);
#989=ADVANCED_FACE('',(#903),#79,.T.);
#990=ADVANCED_FACE('',(#904),#80,.T.);
#991=ADVANCED_FACE('',(#905),#81,.T.);
#992=CLOSED_SHELL('',(#933,#934,#935,#936,#937,#938,#939,#940,#941,#942,
#943,#944,#945,#946,#947,#948,#949,#950,#951,#952,#953,#954,#955,#956,#957,
#958,#959,#960,#961,#962,#963,#964,#965,#966,#967,#968,#969,#970,#971,#972,
#973,#974,#975,#976,#977,#978,#979,#980,#981,#982,#983,#984,#985,#986,#987,
#988,#989,#990,#991));
#993=STYLED_ITEM('',(#994),#1001);
#994=PRESENTATION_STYLE_ASSIGNMENT((#995));
#995=SURFACE_STYLE_USAGE(.BOTH.,#996);
#996=SURFACE_SIDE_STYLE('',(#997));
#997=SURFACE_STYLE_FILL_AREA(#998);
#998=FILL_AREA_STYLE('',(#999));
#999=FILL_AREA_STYLE_COLOUR('',#1000);
#1000=COLOUR_RGB('',0.615686274509804,0.811764705882353,0.929411764705882);
#1001=MANIFOLD_SOLID_BREP('Part 1',#992);
#1002=SHAPE_DEFINITION_REPRESENTATION(#1676,#1003);
#1003=SHAPE_REPRESENTATION('Part 1',(#1004),#1671);
#1004=AXIS2_PLACEMENT_3D('',#1394,#1102,#1103);
#1005=AXIS2_PLACEMENT_3D('',#1395,#1104,#1105);
#1006=AXIS2_PLACEMENT_3D('',#1404,#1110,#1111);
#1007=AXIS2_PLACEMENT_3D('',#1413,#1116,#1117);
#1008=AXIS2_PLACEMENT_3D('',#1422,#1122,#1123);
#1009=AXIS2_PLACEMENT_3D('',#1431,#1128,#1129);
#1010=AXIS2_PLACEMENT_3D('',#1437,#1133,#1134);
#1011=AXIS2_PLACEMENT_3D('',#1443,#1138,#1139);
#1012=AXIS2_PLACEMENT_3D('',#1452,#1144,#1145);
#1013=AXIS2_PLACEMENT_3D('',#1458,#1149,#1150);
#1014=AXIS2_PLACEMENT_3D('',#1464,#1154,#1155);
#1015=AXIS2_PLACEMENT_3D('',#1473,#1160,#1161);
#1016=AXIS2_PLACEMENT_3D('',#1479,#1165,#1166);
#1017=AXIS2_PLACEMENT_3D('',#1485,#1170,#1171);
#1018=AXIS2_PLACEMENT_3D('',#1491,#1175,#1176);
#1019=AXIS2_PLACEMENT_3D('',#1497,#1180,#1181);
#1020=AXIS2_PLACEMENT_3D('',#1503,#1185,#1186);
#1021=AXIS2_PLACEMENT_3D('',#1509,#1190,#1191);
#1022=AXIS2_PLACEMENT_3D('',#1512,#1194,#1195);
#1023=AXIS2_PLACEMENT_3D('',#1515,#1198,#1199);
#1024=AXIS2_PLACEMENT_3D('',#1518,#1202,#1203);
#1025=AXIS2_PLACEMENT_3D('',#1519,#1204,#1205);
#1026=AXIS2_PLACEMENT_3D('',#1521,#1206,#1207);
#1027=AXIS2_PLACEMENT_3D('',#1523,#1208,#1209);
#1028=AXIS2_PLACEMENT_3D('',#1524,#1210,#1211);
#1029=AXIS2_PLACEMENT_3D('',#1526,#1212,#1213);
#1030=AXIS2_PLACEMENT_3D('',#1528,#1214,#1215);
#1031=AXIS2_PLACEMENT_3D('',#1537,#1220,#1221);
#1032=AXIS2_PLACEMENT_3D('',#1546,#1226,#1227);
#1033=AXIS2_PLACEMENT_3D('',#1555,#1232,#1233);
#1034=AXIS2_PLACEMENT_3D('',#1557,#1234,#1235);
#1035=AXIS2_PLACEMENT_3D('',#1591,#1252,#1253);
#1036=AXIS2_PLACEMENT_3D('',#1597,#1257,#1258);
#1037=AXIS2_PLACEMENT_3D('',#1601,#1261,#1262);
#1038=AXIS2_PLACEMENT_3D('',#1605,#1265,#1266);
#1039=AXIS2_PLACEMENT_3D('',#1607,#1268,#1269);
#1040=AXIS2_PLACEMENT_3D('',#1608,#1270,#1271);
#1041=AXIS2_PLACEMENT_3D('',#1609,#1272,#1273);
#1042=AXIS2_PLACEMENT_3D('',#1610,#1274,#1275);
#1043=AXIS2_PLACEMENT_3D('',#1611,#1276,#1277);
#1044=AXIS2_PLACEMENT_3D('',#1612,#1278,#1279);
#1045=AXIS2_PLACEMENT_3D('',#1613,#1280,#1281);
#1046=AXIS2_PLACEMENT_3D('',#1614,#1282,#1283);
#1047=AXIS2_PLACEMENT_3D('',#1615,#1284,#1285);
#1048=AXIS2_PLACEMENT_3D('',#1616,#1286,#1287);
#1049=AXIS2_PLACEMENT_3D('',#1617,#1288,#1289);
#1050=AXIS2_PLACEMENT_3D('',#1618,#1290,#1291);
#1051=AXIS2_PLACEMENT_3D('',#1619,#1292,#1293);
#1052=AXIS2_PLACEMENT_3D('',#1620,#1294,#1295);
#1053=AXIS2_PLACEMENT_3D('',#1621,#1296,#1297);
#1054=AXIS2_PLACEMENT_3D('',#1622,#1298,#1299);
#1055=AXIS2_PLACEMENT_3D('',#1623,#1300,#1301);
#1056=AXIS2_PLACEMENT_3D('',#1624,#1302,#1303);
#1057=AXIS2_PLACEMENT_3D('',#1625,#1304,#1305);
#1058=AXIS2_PLACEMENT_3D('',#1626,#1306,#1307);
#1059=AXIS2_PLACEMENT_3D('',#1627,#1308,#1309);
#1060=AXIS2_PLACEMENT_3D('',#1628,#1310,#1311);
#1061=AXIS2_PLACEMENT_3D('',#1629,#1312,#1313);
#1062=AXIS2_PLACEMENT_3D('',#1630,#1314,#1315);
#1063=AXIS2_PLACEMENT_3D('',#1631,#1316,#1317);
#1064=AXIS2_PLACEMENT_3D('',#1632,#1318,#1319);
#1065=AXIS2_PLACEMENT_3D('',#1633,#1320,#1321);
#1066=AXIS2_PLACEMENT_3D('',#1634,#1322,#1323);
#1067=AXIS2_PLACEMENT_3D('',#1635,#1324,#1325);
#1068=AXIS2_PLACEMENT_3D('',#1636,#1326,#1327);
#1069=AXIS2_PLACEMENT_3D('',#1637,#1328,#1329);
#1070=AXIS2_PLACEMENT_3D('',#1638,#1330,#1331);
#1071=AXIS2_PLACEMENT_3D('',#1639,#1332,#1333);
#1072=AXIS2_PLACEMENT_3D('',#1640,#1334,#1335);
#1073=AXIS2_PLACEMENT_3D('',#1641,#1336,#1337);
#1074=AXIS2_PLACEMENT_3D('',#1642,#1338,#1339);
#1075=AXIS2_PLACEMENT_3D('',#1643,#1340,#1341);
#1076=AXIS2_PLACEMENT_3D('',#1644,#1342,#1343);
#1077=AXIS2_PLACEMENT_3D('',#1645,#1344,#1345);
#1078=AXIS2_PLACEMENT_3D('',#1646,#1346,#1347);
#1079=AXIS2_PLACEMENT_3D('',#1647,#1348,#1349);
#1080=AXIS2_PLACEMENT_3D('',#1648,#1350,#1351);
#1081=AXIS2_PLACEMENT_3D('',#1649,#1352,#1353);
#1082=AXIS2_PLACEMENT_3D('',#1650,#1354,#1355);
#1083=AXIS2_PLACEMENT_3D('',#1651,#1356,#1357);
#1084=AXIS2_PLACEMENT_3D('',#1652,#1358,#1359);
#1085=AXIS2_PLACEMENT_3D('',#1653,#1360,#1361);
#1086=AXIS2_PLACEMENT_3D('',#1654,#1362,#1363);
#1087=AXIS2_PLACEMENT_3D('',#1655,#1364,#1365);
#1088=AXIS2_PLACEMENT_3D('',#1656,#1366,#1367);
#1089=AXIS2_PLACEMENT_3D('',#1657,#1368,#1369);
#1090=AXIS2_PLACEMENT_3D('',#1658,#1370,#1371);
#1091=AXIS2_PLACEMENT_3D('',#1659,#1372,#1373);
#1092=AXIS2_PLACEMENT_3D('',#1660,#1374,#1375);
#1093=AXIS2_PLACEMENT_3D('',#1661,#1376,#1377);
#1094=AXIS2_PLACEMENT_3D('',#1662,#1378,#1379);
#1095=AXIS2_PLACEMENT_3D('',#1663,#1380,#1381);
#1096=AXIS2_PLACEMENT_3D('',#1664,#1382,#1383);
#1097=AXIS2_PLACEMENT_3D('',#1665,#1384,#1385);
#1098=AXIS2_PLACEMENT_3D('',#1666,#1386,#1387);
#1099=AXIS2_PLACEMENT_3D('',#1667,#1388,#1389);
#1100=AXIS2_PLACEMENT_3D('',#1668,#1390,#1391);
#1101=AXIS2_PLACEMENT_3D('',#1669,#1392,#1393);
#1102=DIRECTION('',(0.,0.,1.));
#1103=DIRECTION('',(1.,0.,0.));
#1104=DIRECTION('',(0.,1.,0.));
#1105=DIRECTION('',(0.,0.,1.));
#1106=DIRECTION('',(1.,0.,0.));
#1107=DIRECTION('',(0.,0.,-1.));
#1108=DIRECTION('',(1.,0.,0.));
#1109=DIRECTION('',(0.,0.,-1.));
#1110=DIRECTION('',(1.,5.97027628020652E-17,0.));
#1111=DIRECTION('',(-5.97027628020652E-17,1.,0.));
#1112=DIRECTION('',(5.97027628020652E-17,-1.,0.));
#1113=DIRECTION('',(0.,0.,-1.));
#1114=DIRECTION('',(5.97027628020652E-17,-1.,0.));
#1115=DIRECTION('',(0.,0.,-1.));
#1116=DIRECTION('',(-2.28478561208668E-16,1.,0.));
#1117=DIRECTION('',(-1.,-2.28478561208668E-16,0.));
#1118=DIRECTION('',(1.,2.28478561208668E-16,0.));
#1119=DIRECTION('',(0.,0.,-1.));
#1120=DIRECTION('',(1.,2.28478561208668E-16,0.));
#1121=DIRECTION('',(0.,0.,-1.));
#1122=DIRECTION('',(1.,0.,0.));
#1123=DIRECTION('',(0.,0.,-1.));
#1124=DIRECTION('',(0.,0.,-1.));
#1125=DIRECTION('',(0.,-1.,0.));
#1126=DIRECTION('',(0.,0.,-1.));
#1127=DIRECTION('',(0.,-1.,0.));
#1128=DIRECTION('',(0.,1.,0.));
#1129=DIRECTION('',(0.,0.,1.));
#1130=DIRECTION('',(1.,0.,0.));
#1131=DIRECTION('',(0.,0.,-1.));
#1132=DIRECTION('',(1.,0.,0.));
#1133=DIRECTION('',(1.,0.,0.));
#1134=DIRECTION('',(0.,0.,-1.));
#1135=DIRECTION('',(0.,-1.,0.));
#1136=DIRECTION('',(0.,0.,-1.));
#1137=DIRECTION('',(0.,-1.,0.));
#1138=DIRECTION('',(1.,6.28887571047277E-17,0.));
#1139=DIRECTION('',(-6.28887571047277E-17,1.,0.));
#1140=DIRECTION('',(0.,0.,-1.));
#1141=DIRECTION('',(6.28887571047277E-17,-1.,0.));
#1142=DIRECTION('',(0.,0.,-1.));
#1143=DIRECTION('',(6.28887571047277E-17,-1.,0.));
#1144=DIRECTION('',(-2.45017440109719E-16,1.,0.));
#1145=DIRECTION('',(-1.,-2.45017440109719E-16,0.));
#1146=DIRECTION('',(1.,2.45017440109719E-16,0.));
#1147=DIRECTION('',(0.,0.,-1.));
#1148=DIRECTION('',(1.,2.45017440109719E-16,0.));
#1149=DIRECTION('',(1.,5.03110056837821E-17,0.));
#1150=DIRECTION('',(-5.03110056837821E-17,1.,0.));
#1151=DIRECTION('',(5.03110056837821E-17,-1.,0.));
#1152=DIRECTION('',(0.,0.,-1.));
#1153=DIRECTION('',(5.03110056837821E-17,-1.,0.));
#1154=DIRECTION('',(0.,1.,0.));
#1155=DIRECTION('',(0.,0.,1.));
#1156=DIRECTION('',(0.,0.,-1.));
#1157=DIRECTION('',(1.,0.,0.));
#1158=DIRECTION('',(0.,0.,-1.));
#1159=DIRECTION('',(1.,0.,0.));
#1160=DIRECTION('',(1.,6.12543600274296E-17,0.));
#1161=DIRECTION('',(-6.12543600274296E-17,1.,0.));
#1162=DIRECTION('',(6.12543600274296E-17,-1.,0.));
#1163=DIRECTION('',(0.,0.,-1.));
#1164=DIRECTION('',(6.12543600274296E-17,-1.,0.));
#1165=DIRECTION('',(0.,1.,0.));
#1166=DIRECTION('',(0.,0.,1.));
#1167=DIRECTION('',(1.,0.,0.));
#1168=DIRECTION('',(0.,0.,-1.));
#1169=DIRECTION('',(1.,0.,0.));
#1170=DIRECTION('',(1.,0.,0.));
#1171=DIRECTION('',(0.,0.,-1.));
#1172=DIRECTION('',(0.,-1.,0.));
#1173=DIRECTION('',(0.,0.,-1.));
#1174=DIRECTION('',(0.,-1.,0.));
#1175=DIRECTION('',(0.,-1.,0.));
#1176=DIRECTION('',(0.,0.,-1.));
#1177=DIRECTION('',(-1.,0.,0.));
#1178=DIRECTION('',(0.,0.,-1.));
#1179=DIRECTION('',(-1.,0.,0.));
#1180=DIRECTION('',(-1.,0.,0.));
#1181=DIRECTION('',(0.,0.,1.));
#1182=DIRECTION('',(0.,1.,0.));
#1183=DIRECTION('',(0.,0.,-1.));
#1184=DIRECTION('',(0.,1.,0.));
#1185=DIRECTION('',(0.,1.,0.));
#1186=DIRECTION('',(0.,0.,1.));
#1187=DIRECTION('',(1.,0.,0.));
#1188=DIRECTION('',(0.,0.,-1.));
#1189=DIRECTION('',(1.,0.,0.));
#1190=DIRECTION('',(0.,1.,0.));
#1191=DIRECTION('',(0.,0.,1.));
#1192=DIRECTION('',(1.,0.,0.));
#1193=DIRECTION('',(1.,0.,0.));
#1194=DIRECTION('',(0.,1.,0.));
#1195=DIRECTION('',(0.,0.,1.));
#1196=DIRECTION('',(1.,0.,0.));
#1197=DIRECTION('',(1.,0.,0.));
#1198=DIRECTION('',(1.,0.,0.));
#1199=DIRECTION('',(0.,0.,-1.));
#1200=DIRECTION('',(0.,-1.,0.));
#1201=DIRECTION('',(0.,-1.,0.));
#1202=DIRECTION('',(0.,0.,-1.));
#1203=DIRECTION('',(-1.,0.,0.));
#1204=DIRECTION('',(0.,0.,1.));
#1205=DIRECTION('',(1.,0.,0.));
#1206=DIRECTION('',(0.,0.,1.));
#1207=DIRECTION('',(1.,0.,0.));
#1208=DIRECTION('',(0.,0.,-1.));
#1209=DIRECTION('',(-1.,0.,0.));
#1210=DIRECTION('',(0.,0.,1.));
#1211=DIRECTION('',(1.,0.,0.));
#1212=DIRECTION('',(0.,0.,1.));
#1213=DIRECTION('',(1.,0.,0.));
#1214=DIRECTION('',(1.,0.,0.));
#1215=DIRECTION('',(0.,0.,-1.));
#1216=DIRECTION('',(0.,-1.,0.));
#1217=DIRECTION('',(0.,0.,-1.));
#1218=DIRECTION('',(0.,-1.,0.));
#1219=DIRECTION('',(0.,0.,-1.));
#1220=DIRECTION('',(0.,0.,1.));
#1221=DIRECTION('',(1.,0.,0.));
#1222=DIRECTION('',(0.,1.,0.));
#1223=DIRECTION('',(-1.,0.,0.));
#1224=DIRECTION('',(0.,1.,0.));
#1225=DIRECTION('',(-1.,0.,0.));
#1226=DIRECTION('',(0.,0.,1.));
#1227=DIRECTION('',(1.,0.,0.));
#1228=DIRECTION('',(0.,-1.,0.));
#1229=DIRECTION('',(1.,2.28478561208668E-16,0.));
#1230=DIRECTION('',(5.97027628020652E-17,-1.,0.));
#1231=DIRECTION('',(1.,0.,0.));
#1232=DIRECTION('',(0.,0.,1.));
#1233=DIRECTION('',(1.,0.,0.));
#1234=DIRECTION('',(0.,0.,1.));
#1235=DIRECTION('',(1.,0.,0.));
#1236=DIRECTION('',(1.,0.,0.));
#1237=DIRECTION('',(0.,1.,0.));
#1238=DIRECTION('',(-1.,0.,0.));
#1239=DIRECTION('',(0.,-1.,0.));
#1240=DIRECTION('',(1.,0.,0.));
#1241=DIRECTION('',(6.12543600274296E-17,-1.,0.));
#1242=DIRECTION('',(1.,0.,0.));
#1243=DIRECTION('',(0.,-1.,0.));
#1244=DIRECTION('',(6.28887571047277E-17,-1.,0.));
#1245=DIRECTION('',(1.,0.,0.));
#1246=DIRECTION('',(5.03110056837821E-17,-1.,0.));
#1247=DIRECTION('',(1.,2.45017440109719E-16,0.));
#1248=DIRECTION('',(0.,-1.,0.));
#1249=DIRECTION('',(1.,0.,0.));
#1250=DIRECTION('',(0.,-1.,0.));
#1251=DIRECTION('',(1.,0.,0.));
#1252=DIRECTION('',(1.,0.,0.));
#1253=DIRECTION('',(0.,0.,-1.));
#1254=DIRECTION('',(0.,0.,-1.));
#1255=DIRECTION('',(0.,0.,-1.));
#1256=DIRECTION('',(0.,-1.,0.));
#1257=DIRECTION('',(0.,1.,0.));
#1258=DIRECTION('',(0.,0.,1.));
#1259=DIRECTION('',(0.,0.,-1.));
#1260=DIRECTION('',(1.,0.,0.));
#1261=DIRECTION('',(1.,0.,0.));
#1262=DIRECTION('',(0.,0.,-1.));
#1263=DIRECTION('',(0.,0.,-1.));
#1264=DIRECTION('',(0.,-1.,0.));
#1265=DIRECTION('',(0.,1.,0.));
#1266=DIRECTION('',(0.,0.,1.));
#1267=DIRECTION('',(1.,0.,0.));
#1268=DIRECTION('',(0.,0.,1.));
#1269=DIRECTION('',(1.,0.,0.));
#1270=DIRECTION('',(0.,0.,1.));
#1271=DIRECTION('',(1.,0.,0.));
#1272=DIRECTION('',(0.,0.,1.));
#1273=DIRECTION('',(1.,0.,0.));
#1274=DIRECTION('',(0.,0.,1.));
#1275=DIRECTION('',(1.,0.,0.));
#1276=DIRECTION('',(0.,0.,1.));
#1277=DIRECTION('',(1.,0.,0.));
#1278=DIRECTION('',(0.,0.,1.));
#1279=DIRECTION('',(1.,0.,0.));
#1280=DIRECTION('',(0.,0.,-1.));
#1281=DIRECTION('',(-1.,0.,0.));
#1282=DIRECTION('',(0.,1.,0.));
#1283=DIRECTION('',(0.,0.,1.));
#1284=DIRECTION('',(0.,1.,0.));
#1285=DIRECTION('',(0.,0.,1.));
#1286=DIRECTION('',(-1.,0.,0.));
#1287=DIRECTION('',(0.,0.,1.));
#1288=DIRECTION('',(0.,0.,-1.));
#1289=DIRECTION('',(-1.,0.,0.));
#1290=DIRECTION('',(0.,0.,-1.));
#1291=DIRECTION('',(-1.,0.,0.));
#1292=DIRECTION('',(-1.,0.,0.));
#1293=DIRECTION('',(0.,0.,1.));
#1294=DIRECTION('',(1.,0.,0.));
#1295=DIRECTION('',(0.,0.,-1.));
#1296=DIRECTION('',(5.97027628020652E-17,-1.,0.));
#1297=DIRECTION('',(1.,5.97027628020652E-17,0.));
#1298=DIRECTION('',(0.,-1.,0.));
#1299=DIRECTION('',(0.,0.,-1.));
#1300=DIRECTION('',(0.,0.,-1.));
#1301=DIRECTION('',(-1.,0.,0.));
#1302=DIRECTION('',(0.,0.,-1.));
#1303=DIRECTION('',(-1.,0.,0.));
#1304=DIRECTION('',(0.,1.,0.));
#1305=DIRECTION('',(0.,0.,1.));
#1306=DIRECTION('',(0.,1.,8.67361737988403E-16));
#1307=DIRECTION('',(0.,-8.67361737988403E-16,1.));
#1308=DIRECTION('',(-1.,0.,0.));
#1309=DIRECTION('',(0.,0.,1.));
#1310=DIRECTION('',(-1.,1.73472347597681E-15,0.));
#1311=DIRECTION('',(-1.73472347597681E-15,-1.,0.));
#1312=DIRECTION('',(0.,1.,0.));
#1313=DIRECTION('',(0.,0.,1.));
#1314=DIRECTION('',(0.,-1.,0.));
#1315=DIRECTION('',(0.,0.,-1.));
#1316=DIRECTION('',(1.,2.28478561208668E-16,0.));
#1317=DIRECTION('',(-2.28478561208668E-16,1.,0.));
#1318=DIRECTION('',(1.,0.,0.));
#1319=DIRECTION('',(0.,0.,-1.));
#1320=DIRECTION('',(0.,0.,-1.));
#1321=DIRECTION('',(-1.,0.,0.));
#1322=DIRECTION('',(0.,0.,-1.));
#1323=DIRECTION('',(-1.,0.,0.));
#1324=DIRECTION('',(0.,0.,1.));
#1325=DIRECTION('',(1.,0.,0.));
#1326=DIRECTION('',(0.,0.,1.));
#1327=DIRECTION('',(1.,0.,0.));
#1328=DIRECTION('',(0.,0.,1.));
#1329=DIRECTION('',(1.,0.,0.));
#1330=DIRECTION('',(0.,-1.,0.));
#1331=DIRECTION('',(0.,0.,-1.));
#1332=DIRECTION('',(-0.707106781186548,-0.707106781186548,0.));
#1333=DIRECTION('',(0.707106781186548,-0.707106781186548,0.));
#1334=DIRECTION('',(0.707106781186548,-0.707106781186548,0.));
#1335=DIRECTION('',(-0.707106781186548,-0.707106781186548,0.));
#1336=DIRECTION('',(1.,0.,0.));
#1337=DIRECTION('',(0.,0.,-1.));
#1338=DIRECTION('',(0.707106781186548,-0.707106781186548,0.));
#1339=DIRECTION('',(0.707106781186548,0.707106781186548,0.));
#1340=DIRECTION('',(-1.,0.,0.));
#1341=DIRECTION('',(0.,0.,1.));
#1342=DIRECTION('',(-0.707106781186548,0.707106781186548,0.));
#1343=DIRECTION('',(0.707106781186548,0.707106781186548,0.));
#1344=DIRECTION('',(0.,-1.,0.));
#1345=DIRECTION('',(0.,0.,-1.));
#1346=DIRECTION('',(0.707106781186548,-0.707106781186548,0.));
#1347=DIRECTION('',(0.707106781186548,0.707106781186548,0.));
#1348=DIRECTION('',(-6.12543600274296E-17,1.,0.));
#1349=DIRECTION('',(-1.,-6.12543600274296E-17,0.));
#1350=DIRECTION('',(0.707106781186548,0.707106781186548,0.));
#1351=DIRECTION('',(-0.707106781186548,0.707106781186548,0.));
#1352=DIRECTION('',(1.,0.,0.));
#1353=DIRECTION('',(0.,0.,-1.));
#1354=DIRECTION('',(0.707106781186548,0.707106781186548,0.));
#1355=DIRECTION('',(-0.707106781186548,0.707106781186548,0.));
#1356=DIRECTION('',(1.,0.,0.));
#1357=DIRECTION('',(0.,0.,-1.));
#1358=DIRECTION('',(0.707106781186548,0.707106781186548,0.));
#1359=DIRECTION('',(0.707106781186548,-0.707106781186548,0.));
#1360=DIRECTION('',(0.,1.,0.));
#1361=DIRECTION('',(0.,0.,1.));
#1362=DIRECTION('',(-6.28887571047277E-17,1.,0.));
#1363=DIRECTION('',(-1.,-6.28887571047277E-17,0.));
#1364=DIRECTION('',(-0.707106781186548,0.707106781186548,0.));
#1365=DIRECTION('',(0.707106781186548,0.707106781186548,0.));
#1366=DIRECTION('',(0.707106781186547,0.707106781186548,0.));
#1367=DIRECTION('',(-0.707106781186548,0.707106781186548,0.));
#1368=DIRECTION('',(1.,2.45017440109719E-16,0.));
#1369=DIRECTION('',(-2.45017440109719E-16,1.,0.));
#1370=DIRECTION('',(0.707106781186548,-0.707106781186548,0.));
#1371=DIRECTION('',(-0.707106781186548,-0.707106781186548,0.));
#1372=DIRECTION('',(-1.,0.,0.));
#1373=DIRECTION('',(0.,0.,1.));
#1374=DIRECTION('',(-0.707106781186548,-0.707106781186548,0.));
#1375=DIRECTION('',(0.707106781186548,-0.707106781186548,0.));
#1376=DIRECTION('',(5.03110056837821E-17,-1.,0.));
#1377=DIRECTION('',(1.,5.03110056837821E-17,0.));
#1378=DIRECTION('',(0.,1.,0.));
#1379=DIRECTION('',(0.,0.,1.));
#1380=DIRECTION('',(-0.707106781186548,0.707106781186548,0.));
#1381=DIRECTION('',(0.707106781186548,0.707106781186548,0.));
#1382=DIRECTION('',(0.707106781186548,0.707106781186548,0.));
#1383=DIRECTION('',(-0.707106781186548,0.707106781186548,0.));
#1384=DIRECTION('',(1.,0.,0.));
#1385=DIRECTION('',(0.,0.,-1.));
#1386=DIRECTION('',(0.707106781186548,-0.707106781186548,0.));
#1387=DIRECTION('',(-0.707106781186548,-0.707106781186548,0.));
#1388=DIRECTION('',(-1.,0.,0.));
#1389=DIRECTION('',(0.,0.,1.));
#1390=DIRECTION('',(-0.707106781186548,-0.707106781186548,0.));
#1391=DIRECTION('',(0.707106781186548,-0.707106781186548,0.));
#1392=DIRECTION('',(0.,-1.,0.));
#1393=DIRECTION('',(0.,0.,-1.));
#1394=CARTESIAN_POINT('',(0.,0.,0.));
#1395=CARTESIAN_POINT('',(0.014185,0.001,0.003));
#1396=CARTESIAN_POINT('',(0.014185,0.001,0.004));
#1397=CARTESIAN_POINT('',(-0.0005,0.001,0.004));
#1398=CARTESIAN_POINT('',(0.02887,0.001,0.004));
#1399=CARTESIAN_POINT('',(0.02887,0.001,0.003));
#1400=CARTESIAN_POINT('',(0.02887,0.001,0.0005));
#1401=CARTESIAN_POINT('',(-0.001,0.001,0.0005));
#1402=CARTESIAN_POINT('',(-0.0005,0.001,0.0005));
#1403=CARTESIAN_POINT('',(-0.0005,0.001,0.004));
#1404=CARTESIAN_POINT('',(-0.001,-0.00808,0.003));
#1405=CARTESIAN_POINT('',(-0.001,-0.00808,0.004));
#1406=CARTESIAN_POINT('',(-0.001,0.0005,0.004));
#1407=CARTESIAN_POINT('',(-0.001,-0.01666,0.004));
#1408=CARTESIAN_POINT('',(-0.001,0.0005,0.));
#1409=CARTESIAN_POINT('',(-0.001,0.0005,0.0005));
#1410=CARTESIAN_POINT('',(-0.001,-0.00808,0.0005));
#1411=CARTESIAN_POINT('',(-0.001,-0.01666,0.0005));
#1412=CARTESIAN_POINT('',(-0.001,-0.01666,0.003));
#1413=CARTESIAN_POINT('',(0.014185,-0.01716,0.003));
#1414=CARTESIAN_POINT('',(0.014185,-0.01716,0.0005));
#1415=CARTESIAN_POINT('',(-0.0005,-0.01716,0.0005));
#1416=CARTESIAN_POINT('',(0.02887,-0.01716,0.0005));
#1417=CARTESIAN_POINT('',(0.02887,-0.01716,0.004));
#1418=CARTESIAN_POINT('',(0.02887,-0.01716,0.004));
#1419=CARTESIAN_POINT('',(0.014185,-0.01716,0.004));
#1420=CARTESIAN_POINT('',(-0.0005,-0.01716,0.004));
#1421=CARTESIAN_POINT('',(-0.0005,-0.01716,0.003));
#1422=CARTESIAN_POINT('',(0.02448,-0.00617,0.003));
#1423=CARTESIAN_POINT('',(0.02448,-0.01048,0.003));
#1424=CARTESIAN_POINT('',(0.02448,-0.01048,0.003));
#1425=CARTESIAN_POINT('',(0.02448,-0.01048,0.0005));
#1426=CARTESIAN_POINT('',(0.02448,-0.00186,0.0005));
#1427=CARTESIAN_POINT('',(0.02448,-0.00186,0.0005));
#1428=CARTESIAN_POINT('',(0.02448,-0.00186,0.003));
#1429=CARTESIAN_POINT('',(0.02448,-0.00186,0.003));
#1430=CARTESIAN_POINT('',(0.02448,-0.00617,0.003));
#1431=CARTESIAN_POINT('',(0.02625,-0.00186,0.003));
#1432=CARTESIAN_POINT('',(0.02625,-0.00186,0.0005));
#1433=CARTESIAN_POINT('',(0.02802,-0.00186,0.0005));
#1434=CARTESIAN_POINT('',(0.02802,-0.00186,0.003));
#1435=CARTESIAN_POINT('',(0.02802,-0.00186,0.003));
#1436=CARTESIAN_POINT('',(0.02625,-0.00186,0.003));
#1437=CARTESIAN_POINT('',(0.02802,-0.00617,0.003));
#1438=CARTESIAN_POINT('',(0.02802,-0.00617,0.0005));
#1439=CARTESIAN_POINT('',(0.02802,-0.01048,0.0005));
#1440=CARTESIAN_POINT('',(0.02802,-0.01048,0.003));
#1441=CARTESIAN_POINT('',(0.02802,-0.01048,0.003));
#1442=CARTESIAN_POINT('',(0.02802,-0.00617,0.003));
#1443=CARTESIAN_POINT('',(0.00035,-0.00617,0.003));
#1444=CARTESIAN_POINT('',(0.00035,-0.01048,0.003));
#1445=CARTESIAN_POINT('',(0.00035,-0.01048,0.003));
#1446=CARTESIAN_POINT('',(0.00035,-0.01048,0.0005));
#1447=CARTESIAN_POINT('',(0.00035,-0.00186,0.0005));
#1448=CARTESIAN_POINT('',(0.00035,-0.00186,0.0005));
#1449=CARTESIAN_POINT('',(0.00035,-0.00186,0.003));
#1450=CARTESIAN_POINT('',(0.00035,-0.00186,0.003));
#1451=CARTESIAN_POINT('',(0.00035,-0.00617,0.003));
#1452=CARTESIAN_POINT('',(0.00212,-0.00186,0.003));
#1453=CARTESIAN_POINT('',(0.00212,-0.00186,0.0005));
#1454=CARTESIAN_POINT('',(0.00389,-0.00186,0.0005));
#1455=CARTESIAN_POINT('',(0.00389,-0.00186,0.003));
#1456=CARTESIAN_POINT('',(0.00389,-0.00186,0.003));
#1457=CARTESIAN_POINT('',(0.00212,-0.00186,0.003));
#1458=CARTESIAN_POINT('',(0.00389,-0.00617,0.003));
#1459=CARTESIAN_POINT('',(0.00389,-0.00617,0.0005));
#1460=CARTESIAN_POINT('',(0.00389,-0.01048,0.0005));
#1461=CARTESIAN_POINT('',(0.00389,-0.01048,0.003));
#1462=CARTESIAN_POINT('',(0.00389,-0.01048,0.003));
#1463=CARTESIAN_POINT('',(0.00389,-0.00617,0.003));
#1464=CARTESIAN_POINT('',(0.014185,-0.01556,0.003));
#1465=CARTESIAN_POINT('',(0.02802,-0.01556,0.003));
#1466=CARTESIAN_POINT('',(0.02802,-0.01556,0.003));
#1467=CARTESIAN_POINT('',(0.02802,-0.01556,0.0005));
#1468=CARTESIAN_POINT('',(0.00035,-0.01556,0.0005));
#1469=CARTESIAN_POINT('',(0.00035,-0.01556,0.0005));
#1470=CARTESIAN_POINT('',(0.00035,-0.01556,0.003));
#1471=CARTESIAN_POINT('',(0.00035,-0.01556,0.003));
#1472=CARTESIAN_POINT('',(0.014185,-0.01556,0.003));
#1473=CARTESIAN_POINT('',(0.00035,-0.01379,0.003));
#1474=CARTESIAN_POINT('',(0.00035,-0.01202,0.0005));
#1475=CARTESIAN_POINT('',(0.00035,-0.01202,0.0005));
#1476=CARTESIAN_POINT('',(0.00035,-0.01202,0.003));
#1477=CARTESIAN_POINT('',(0.00035,-0.01202,0.003));
#1478=CARTESIAN_POINT('',(0.00035,-0.01379,0.003));
#1479=CARTESIAN_POINT('',(0.00593,-0.01202,0.003));
#1480=CARTESIAN_POINT('',(0.00593,-0.01202,0.0005));
#1481=CARTESIAN_POINT('',(0.01151,-0.01202,0.0005));
#1482=CARTESIAN_POINT('',(0.01151,-0.01202,0.003));
#1483=CARTESIAN_POINT('',(0.01151,-0.01202,0.003));
#1484=CARTESIAN_POINT('',(0.00593,-0.01202,0.003));
#1485=CARTESIAN_POINT('',(0.01151,-0.01144,0.003));
#1486=CARTESIAN_POINT('',(0.01151,-0.01086,0.0005));
#1487=CARTESIAN_POINT('',(0.01151,-0.01086,0.0005));
#1488=CARTESIAN_POINT('',(0.01151,-0.01086,0.003));
#1489=CARTESIAN_POINT('',(0.01151,-0.01086,0.003));
#1490=CARTESIAN_POINT('',(0.01151,-0.01144,0.003));
#1491=CARTESIAN_POINT('',(0.014185,-0.01086,0.003));
#1492=CARTESIAN_POINT('',(0.01686,-0.01086,0.0005));
#1493=CARTESIAN_POINT('',(0.01686,-0.01086,0.0005));
#1494=CARTESIAN_POINT('',(0.01686,-0.01086,0.003));
#1495=CARTESIAN_POINT('',(0.01686,-0.01086,0.003));
#1496=CARTESIAN_POINT('',(0.014185,-0.01086,0.003));
#1497=CARTESIAN_POINT('',(0.01686,-0.01144,0.003));
#1498=CARTESIAN_POINT('',(0.01686,-0.01202,0.0005));
#1499=CARTESIAN_POINT('',(0.01686,-0.01202,0.0005));
#1500=CARTESIAN_POINT('',(0.01686,-0.01202,0.003));
#1501=CARTESIAN_POINT('',(0.01686,-0.01202,0.003));
#1502=CARTESIAN_POINT('',(0.01686,-0.01144,0.003));
#1503=CARTESIAN_POINT('',(0.02244,-0.01202,0.003));
#1504=CARTESIAN_POINT('',(0.02244,-0.01202,0.0005));
#1505=CARTESIAN_POINT('',(0.02802,-0.01202,0.0005));
#1506=CARTESIAN_POINT('',(0.02802,-0.01202,0.003));
#1507=CARTESIAN_POINT('',(0.02802,-0.01202,0.003));
#1508=CARTESIAN_POINT('',(0.02244,-0.01202,0.003));
#1509=CARTESIAN_POINT('',(0.02625,-0.01048,0.003));
#1510=CARTESIAN_POINT('',(0.02448,-0.01048,0.0005));
#1511=CARTESIAN_POINT('',(0.02625,-0.01048,0.003));
#1512=CARTESIAN_POINT('',(0.00212,-0.01048,0.003));
#1513=CARTESIAN_POINT('',(0.00035,-0.01048,0.0005));
#1514=CARTESIAN_POINT('',(0.00212,-0.01048,0.003));
#1515=CARTESIAN_POINT('',(0.02802,-0.01379,0.003));
#1516=CARTESIAN_POINT('',(0.02802,-0.01379,0.0005));
#1517=CARTESIAN_POINT('',(0.02802,-0.01379,0.003));
#1518=CARTESIAN_POINT('',(0.019285,-0.00794,0.003));
#1519=CARTESIAN_POINT('',(0.019285,-0.00794,0.0005));
#1520=CARTESIAN_POINT('',(0.020885,-0.00794,0.0005));
#1521=CARTESIAN_POINT('',(0.019285,-0.00794,0.003));
#1522=CARTESIAN_POINT('',(0.020885,-0.00794,0.003));
#1523=CARTESIAN_POINT('',(0.009085,-0.00794,0.003));
#1524=CARTESIAN_POINT('',(0.009085,-0.00794,0.0005));
#1525=CARTESIAN_POINT('',(0.010685,-0.00794,0.0005));
#1526=CARTESIAN_POINT('',(0.009085,-0.00794,0.003));
#1527=CARTESIAN_POINT('',(0.010685,-0.00794,0.003));
#1528=CARTESIAN_POINT('',(0.02937,-0.00808,0.003));
#1529=CARTESIAN_POINT('',(0.02937,-0.00808,0.004));
#1530=CARTESIAN_POINT('',(0.02937,0.0005,0.004));
#1531=CARTESIAN_POINT('',(0.02937,-0.01666,0.004));
#1532=CARTESIAN_POINT('',(0.02937,-0.01666,0.));
#1533=CARTESIAN_POINT('',(0.02937,-0.01666,0.0005));
#1534=CARTESIAN_POINT('',(0.02937,0.001,0.0005));
#1535=CARTESIAN_POINT('',(0.02937,0.0005,0.0005));
#1536=CARTESIAN_POINT('',(0.02937,0.0005,0.003));
#1537=CARTESIAN_POINT('',(0.014185,-0.00808,0.003));
#1538=CARTESIAN_POINT('',(0.,-0.00808,0.003));
#1539=CARTESIAN_POINT('',(1.7347234759768E-18,-0.01616,0.003));
#1540=CARTESIAN_POINT('',(0.,0.,0.003));
#1541=CARTESIAN_POINT('',(0.014185,-0.01616,0.003));
#1542=CARTESIAN_POINT('',(0.02837,-0.01616,0.003));
#1543=CARTESIAN_POINT('',(0.02837,-0.00808,0.003));
#1544=CARTESIAN_POINT('',(0.02837,0.,0.003));
#1545=CARTESIAN_POINT('',(0.014185,0.,0.003));
#1546=CARTESIAN_POINT('',(0.014185,-0.00808,0.));
#1547=CARTESIAN_POINT('',(0.02887,-0.01716,0.));
#1548=CARTESIAN_POINT('',(0.02887,0.0005,0.));
#1549=CARTESIAN_POINT('',(0.02887,-0.01666,0.));
#1550=CARTESIAN_POINT('',(0.014185,-0.01666,0.));
#1551=CARTESIAN_POINT('',(-0.0005,-0.01666,0.));
#1552=CARTESIAN_POINT('',(-0.0005,-0.00808,0.));
#1553=CARTESIAN_POINT('',(-0.0005,0.0005,0.));
#1554=CARTESIAN_POINT('',(0.02937,0.0005,0.));
#1555=CARTESIAN_POINT('',(0.019285,-0.00794,0.));
#1556=CARTESIAN_POINT('',(0.021385,-0.00794,0.));
#1557=CARTESIAN_POINT('',(0.009085,-0.00794,0.));
#1558=CARTESIAN_POINT('',(0.011185,-0.00794,0.));
#1559=CARTESIAN_POINT('',(0.014185,-0.01152,0.));
#1560=CARTESIAN_POINT('',(0.02852,-0.01152,0.));
#1561=CARTESIAN_POINT('',(0.01736,-0.01152,0.));
#1562=CARTESIAN_POINT('',(0.01736,-0.01086,0.));
#1563=CARTESIAN_POINT('',(0.01736,-0.01036,0.));
#1564=CARTESIAN_POINT('',(0.01151,-0.01036,0.));
#1565=CARTESIAN_POINT('',(0.01101,-0.01036,0.));
#1566=CARTESIAN_POINT('',(0.01101,-0.01202,0.));
#1567=CARTESIAN_POINT('',(0.01101,-0.01152,0.));
#1568=CARTESIAN_POINT('',(0.014185,-0.01152,0.));
#1569=CARTESIAN_POINT('',(-0.00015,-0.01152,0.));
#1570=CARTESIAN_POINT('',(-0.000149999999999999,-0.01556,0.));
#1571=CARTESIAN_POINT('',(-0.000149999999999999,-0.01606,0.));
#1572=CARTESIAN_POINT('',(0.02802,-0.01606,0.));
#1573=CARTESIAN_POINT('',(0.02852,-0.01606,0.));
#1574=CARTESIAN_POINT('',(0.02852,-0.00808,0.));
#1575=CARTESIAN_POINT('',(-0.00015,-0.01048,0.));
#1576=CARTESIAN_POINT('',(-0.00015,-0.00136,0.));
#1577=CARTESIAN_POINT('',(-0.00015,-0.01098,0.));
#1578=CARTESIAN_POINT('',(0.00389,-0.01098,0.));
#1579=CARTESIAN_POINT('',(0.00439,-0.01098,0.));
#1580=CARTESIAN_POINT('',(0.00439,-0.00808,0.));
#1581=CARTESIAN_POINT('',(0.00439,-0.00136,0.));
#1582=CARTESIAN_POINT('',(0.014185,-0.00136,0.));
#1583=CARTESIAN_POINT('',(0.02398,-0.01048,0.));
#1584=CARTESIAN_POINT('',(0.02398,-0.00136,0.));
#1585=CARTESIAN_POINT('',(0.02398,-0.01098,0.));
#1586=CARTESIAN_POINT('',(0.02802,-0.01098,0.));
#1587=CARTESIAN_POINT('',(0.02852,-0.01098,0.));
#1588=CARTESIAN_POINT('',(0.02852,-0.00808,0.));
#1589=CARTESIAN_POINT('',(0.02852,-0.00136,0.));
#1590=CARTESIAN_POINT('',(0.014185,-0.00136,0.));
#1591=CARTESIAN_POINT('',(0.,-0.00808,0.004));
#1592=CARTESIAN_POINT('',(1.7347234759768E-18,-0.01616,0.004));
#1593=CARTESIAN_POINT('',(1.7347234759768E-18,-0.01616,0.004));
#1594=CARTESIAN_POINT('',(0.,0.,0.004));
#1595=CARTESIAN_POINT('',(0.,0.,0.004));
#1596=CARTESIAN_POINT('',(0.,-0.00808,0.004));
#1597=CARTESIAN_POINT('',(0.014185,0.,0.004));
#1598=CARTESIAN_POINT('',(0.02837,0.,0.004));
#1599=CARTESIAN_POINT('',(0.02837,0.,0.004));
#1600=CARTESIAN_POINT('',(0.014185,0.,0.004));
#1601=CARTESIAN_POINT('',(0.02837,-0.00808,0.004));
#1602=CARTESIAN_POINT('',(0.02837,-0.01616,0.004));
#1603=CARTESIAN_POINT('',(0.02837,-0.01616,0.004));
#1604=CARTESIAN_POINT('',(0.02837,-0.00808,0.004));
#1605=CARTESIAN_POINT('',(0.014185,-0.01616,0.004));
#1606=CARTESIAN_POINT('',(0.014185,-0.01616,0.004));
#1607=CARTESIAN_POINT('',(0.014185,-0.00808,0.004));
#1608=CARTESIAN_POINT('',(0.02887,-0.01666,0.004));
#1609=CARTESIAN_POINT('',(0.02887,0.0005,0.004));
#1610=CARTESIAN_POINT('',(-0.0005,0.0005,0.004));
#1611=CARTESIAN_POINT('',(-0.0005,-0.01666,0.004));
#1612=CARTESIAN_POINT('',(-0.0005,0.0005,0.003));
#1613=CARTESIAN_POINT('',(-0.0005,0.0005,0.0005));
#1614=CARTESIAN_POINT('',(-0.0005,0.0005,0.0005));
#1615=CARTESIAN_POINT('',(-0.0005,0.0005,0.0005));
#1616=CARTESIAN_POINT('',(-0.0005,0.0005,0.0005));
#1617=CARTESIAN_POINT('',(0.02887,0.0005,0.003));
#1618=CARTESIAN_POINT('',(0.02887,0.0005,0.0005));
#1619=CARTESIAN_POINT('',(0.014185,0.0005,0.0005));
#1620=CARTESIAN_POINT('',(0.02887,0.0005,0.0005));
#1621=CARTESIAN_POINT('',(-0.0005,-0.00808,0.0005));
#1622=CARTESIAN_POINT('',(-0.0005,-0.01666,0.0005));
#1623=CARTESIAN_POINT('',(-0.0005,-0.01666,0.003));
#1624=CARTESIAN_POINT('',(-0.0005,-0.01666,0.0005));
#1625=CARTESIAN_POINT('',(0.02887,0.0005,0.0005));
#1626=CARTESIAN_POINT('',(0.02887,0.0005,0.0005));
#1627=CARTESIAN_POINT('',(-0.0005,-0.01666,0.0005));
#1628=CARTESIAN_POINT('',(-0.0005,-0.01666,0.0005));
#1629=CARTESIAN_POINT('',(0.02887,-0.00808,0.0005));
#1630=CARTESIAN_POINT('',(0.02887,-0.01666,0.0005));
#1631=CARTESIAN_POINT('',(0.014185,-0.01666,0.0005));
#1632=CARTESIAN_POINT('',(0.02887,-0.01666,0.0005));
#1633=CARTESIAN_POINT('',(0.02887,-0.01666,0.0005));
#1634=CARTESIAN_POINT('',(0.02887,-0.01666,0.0005));
#1635=CARTESIAN_POINT('',(0.02887,-0.01666,0.003));
#1636=CARTESIAN_POINT('',(0.019285,-0.00794,0.0005));
#1637=CARTESIAN_POINT('',(0.009085,-0.00794,0.0005));
#1638=CARTESIAN_POINT('',(0.02852,-0.01379,0.0005));
#1639=CARTESIAN_POINT('',(0.02852,-0.01606,0.0005));
#1640=CARTESIAN_POINT('',(0.02852,-0.01152,0.0005));
#1641=CARTESIAN_POINT('',(0.02244,-0.01152,0.0005));
#1642=CARTESIAN_POINT('',(0.01736,-0.01152,0.0005));
#1643=CARTESIAN_POINT('',(0.014185,-0.01606,0.0005));
#1644=CARTESIAN_POINT('',(-0.00015,-0.01606,0.0005));
#1645=CARTESIAN_POINT('',(0.01736,-0.00808,0.0005));
#1646=CARTESIAN_POINT('',(0.01736,-0.01036,0.0005));
#1647=CARTESIAN_POINT('',(-0.00015,-0.00808,0.0005));
#1648=CARTESIAN_POINT('',(-0.00015,-0.01152,0.0005));
#1649=CARTESIAN_POINT('',(0.014185,-0.01036,0.0005));
#1650=CARTESIAN_POINT('',(0.01101,-0.01036,0.0005));
#1651=CARTESIAN_POINT('',(0.00593,-0.01152,0.0005));
#1652=CARTESIAN_POINT('',(0.01101,-0.01152,0.0005));
#1653=CARTESIAN_POINT('',(0.01101,-0.00808,0.0005));
#1654=CARTESIAN_POINT('',(-0.00015,-0.00808,0.0005));
#1655=CARTESIAN_POINT('',(-0.00015,-0.01098,0.0005));
#1656=CARTESIAN_POINT('',(-0.00015,-0.00136,0.0005));
#1657=CARTESIAN_POINT('',(0.00212,-0.00136,0.0005));
#1658=CARTESIAN_POINT('',(0.00439,-0.00136,0.0005));
#1659=CARTESIAN_POINT('',(0.014185,-0.01098,0.0005));
#1660=CARTESIAN_POINT('',(0.00439,-0.01098,0.0005));
#1661=CARTESIAN_POINT('',(0.00439,-0.00617,0.0005));
#1662=CARTESIAN_POINT('',(0.02398,-0.00808,0.0005));
#1663=CARTESIAN_POINT('',(0.02398,-0.01098,0.0005));
#1664=CARTESIAN_POINT('',(0.02398,-0.00136,0.0005));
#1665=CARTESIAN_POINT('',(0.02625,-0.00136,0.0005));
#1666=CARTESIAN_POINT('',(0.02852,-0.00136,0.0005));
#1667=CARTESIAN_POINT('',(0.014185,-0.01098,0.0005));
#1668=CARTESIAN_POINT('',(0.02852,-0.01098,0.0005));
#1669=CARTESIAN_POINT('',(0.02852,-0.00617,0.0005));
#1670=MECHANICAL_DESIGN_GEOMETRIC_PRESENTATION_REPRESENTATION('',(#993),
#1671);
#1671=(
GEOMETRIC_REPRESENTATION_CONTEXT(3)
GLOBAL_UNCERTAINTY_ASSIGNED_CONTEXT((#1672))
GLOBAL_UNIT_ASSIGNED_CONTEXT((#1675,#1674,#1673))
REPRESENTATION_CONTEXT('Part 1','TOP_LEVEL_ASSEMBLY_PART')
);
#1672=UNCERTAINTY_MEASURE_WITH_UNIT(LENGTH_MEASURE(1.E-8),#1675,
'DISTANCE_ACCURACY_VALUE','Maximum Tolerance applied to model');
#1673=(
NAMED_UNIT(*)
SI_UNIT($,.STERADIAN.)
SOLID_ANGLE_UNIT()
);
#1674=(
NAMED_UNIT(*)
PLANE_ANGLE_UNIT()
SI_UNIT($,.RADIAN.)
);
#1675=(
LENGTH_UNIT()
NAMED_UNIT(*)
SI_UNIT($,.METRE.)
);
#1676=PRODUCT_DEFINITION_SHAPE('','',#1677);
#1677=PRODUCT_DEFINITION('','',#1679,#1678);
#1678=PRODUCT_DEFINITION_CONTEXT('',#1685,'design');
#1679=PRODUCT_DEFINITION_FORMATION_WITH_SPECIFIED_SOURCE('','',#1681,
 .NOT_KNOWN.);
#1680=PRODUCT_RELATED_PRODUCT_CATEGORY('','',(#1681));
#1681=PRODUCT('Part 1','Part 1','Part 1',(#1683));
#1682=PRODUCT_CATEGORY('','');
#1683=PRODUCT_CONTEXT('',#1685,'mechanical');
#1684=APPLICATION_PROTOCOL_DEFINITION('international standard',
'ap242_managed_model_based_3d_engineering',2020,#1685);
#1685=APPLICATION_CONTEXT('managed model based 3d engineering');
ENDSEC;
END-ISO-10303-21;
