ISO-10303-21;
HEADER;
/* Generated by software containing ST-Developer
 * from STEP Tools, Inc. (www.steptools.com) 
 */
/* OPTION: using custom renumber hook */

FILE_DESCRIPTION(
/* description */ ('STEP AP242 Edition 2',
'CAx-IF Rec.Pracs.---Representation and Presentation of Product Manufa
cturing Information (PMI)---4.0---2014-10-13',
'CAx-IF Rec.Pracs.---3D Tessellated Geometry---0.4---2014-09-14','2;1',
'CAx-IF Rec.Pracs.---User Defined Attributes---1.5---2016-08-15'),
/* implementation_level */ '2;1');

FILE_NAME(
/* name */ 'Part Studio 1 - Part 1',
/* time_stamp */ '2026-05-02T22:56:15Z',
/* author */ (''),
/* organization */ (''),
/* preprocessor_version */ 'ST-DEVELOPER v20',
/* originating_system */ 'ONSHAPE BY PTC INC, 1.214',
/* authorisation */ '  ');

FILE_SCHEMA (('AP242_MANAGED_MODEL_BASED_3D_ENGINEERING_MIM_LF { 1 0 10303 442 3 1 4 }'));
ENDSEC;

DATA;
#10=SHAPE_REPRESENTATION_RELATIONSHIP('','',#321,#11);
#11=ADVANCED_BREP_SHAPE_REPRESENTATION('',(#319),#527);
#12=CIRCLE('',#327,0.0016);
#13=CIRCLE('',#328,0.0016);
#14=CIRCLE('',#330,0.0016);
#15=CIRCLE('',#331,0.0016);
#16=CIRCLE('',#335,0.0005);
#17=CIRCLE('',#336,0.0005);
#18=CIRCLE('',#337,0.0005);
#19=CIRCLE('',#338,0.0005);
#20=CIRCLE('',#344,0.0005);
#21=CIRCLE('',#345,0.0005);
#22=CIRCLE('',#346,0.0005);
#23=CIRCLE('',#347,0.0005);
#24=CYLINDRICAL_SURFACE('',#326,0.0016);
#25=CYLINDRICAL_SURFACE('',#329,0.0016);
#26=CYLINDRICAL_SURFACE('',#348,0.0005);
#27=CYLINDRICAL_SURFACE('',#349,0.0005);
#28=CYLINDRICAL_SURFACE('',#350,0.0005);
#29=CYLINDRICAL_SURFACE('',#351,0.0005);
#30=ORIENTED_EDGE('',*,*,#110,.F.);
#31=ORIENTED_EDGE('',*,*,#111,.T.);
#32=ORIENTED_EDGE('',*,*,#112,.T.);
#33=ORIENTED_EDGE('',*,*,#113,.T.);
#34=ORIENTED_EDGE('',*,*,#114,.T.);
#35=ORIENTED_EDGE('',*,*,#115,.T.);
#36=ORIENTED_EDGE('',*,*,#116,.F.);
#37=ORIENTED_EDGE('',*,*,#117,.T.);
#38=ORIENTED_EDGE('',*,*,#118,.F.);
#39=ORIENTED_EDGE('',*,*,#119,.T.);
#40=ORIENTED_EDGE('',*,*,#120,.T.);
#41=ORIENTED_EDGE('',*,*,#121,.T.);
#42=ORIENTED_EDGE('',*,*,#122,.T.);
#43=ORIENTED_EDGE('',*,*,#123,.F.);
#44=ORIENTED_EDGE('',*,*,#124,.T.);
#45=ORIENTED_EDGE('',*,*,#125,.F.);
#46=ORIENTED_EDGE('',*,*,#126,.F.);
#47=ORIENTED_EDGE('',*,*,#127,.T.);
#48=ORIENTED_EDGE('',*,*,#128,.T.);
#49=ORIENTED_EDGE('',*,*,#129,.T.);
#50=ORIENTED_EDGE('',*,*,#130,.F.);
#51=ORIENTED_EDGE('',*,*,#131,.F.);
#52=ORIENTED_EDGE('',*,*,#132,.T.);
#53=ORIENTED_EDGE('',*,*,#133,.T.);
#54=ORIENTED_EDGE('',*,*,#124,.F.);
#55=ORIENTED_EDGE('',*,*,#122,.F.);
#56=ORIENTED_EDGE('',*,*,#125,.T.);
#57=ORIENTED_EDGE('',*,*,#123,.T.);
#58=ORIENTED_EDGE('',*,*,#120,.F.);
#59=ORIENTED_EDGE('',*,*,#134,.T.);
#60=ORIENTED_EDGE('',*,*,#114,.F.);
#61=ORIENTED_EDGE('',*,*,#135,.T.);
#62=ORIENTED_EDGE('',*,*,#110,.T.);
#63=ORIENTED_EDGE('',*,*,#136,.T.);
#64=ORIENTED_EDGE('',*,*,#126,.T.);
#65=ORIENTED_EDGE('',*,*,#137,.T.);
#66=ORIENTED_EDGE('',*,*,#138,.T.);
#67=ORIENTED_EDGE('',*,*,#130,.T.);
#68=ORIENTED_EDGE('',*,*,#139,.F.);
#69=ORIENTED_EDGE('',*,*,#140,.T.);
#70=ORIENTED_EDGE('',*,*,#133,.F.);
#71=ORIENTED_EDGE('',*,*,#141,.F.);
#72=ORIENTED_EDGE('',*,*,#142,.F.);
#73=ORIENTED_EDGE('',*,*,#139,.T.);
#74=ORIENTED_EDGE('',*,*,#132,.F.);
#75=ORIENTED_EDGE('',*,*,#143,.F.);
#76=ORIENTED_EDGE('',*,*,#144,.F.);
#77=ORIENTED_EDGE('',*,*,#141,.T.);
#78=ORIENTED_EDGE('',*,*,#143,.T.);
#79=ORIENTED_EDGE('',*,*,#131,.T.);
#80=ORIENTED_EDGE('',*,*,#138,.F.);
#81=ORIENTED_EDGE('',*,*,#145,.T.);
#82=ORIENTED_EDGE('',*,*,#140,.F.);
#83=ORIENTED_EDGE('',*,*,#142,.T.);
#84=ORIENTED_EDGE('',*,*,#144,.T.);
#85=ORIENTED_EDGE('',*,*,#145,.F.);
#86=ORIENTED_EDGE('',*,*,#116,.T.);
#87=ORIENTED_EDGE('',*,*,#146,.T.);
#88=ORIENTED_EDGE('',*,*,#118,.T.);
#89=ORIENTED_EDGE('',*,*,#147,.T.);
#90=ORIENTED_EDGE('',*,*,#128,.F.);
#91=ORIENTED_EDGE('',*,*,#148,.T.);
#92=ORIENTED_EDGE('',*,*,#112,.F.);
#93=ORIENTED_EDGE('',*,*,#149,.T.);
#94=ORIENTED_EDGE('',*,*,#146,.F.);
#95=ORIENTED_EDGE('',*,*,#115,.F.);
#96=ORIENTED_EDGE('',*,*,#134,.F.);
#97=ORIENTED_EDGE('',*,*,#119,.F.);
#98=ORIENTED_EDGE('',*,*,#149,.F.);
#99=ORIENTED_EDGE('',*,*,#111,.F.);
#100=ORIENTED_EDGE('',*,*,#135,.F.);
#101=ORIENTED_EDGE('',*,*,#117,.F.);
#102=ORIENTED_EDGE('',*,*,#148,.F.);
#103=ORIENTED_EDGE('',*,*,#127,.F.);
#104=ORIENTED_EDGE('',*,*,#136,.F.);
#105=ORIENTED_EDGE('',*,*,#113,.F.);
#106=ORIENTED_EDGE('',*,*,#147,.F.);
#107=ORIENTED_EDGE('',*,*,#121,.F.);
#108=ORIENTED_EDGE('',*,*,#137,.F.);
#109=ORIENTED_EDGE('',*,*,#129,.F.);
#110=EDGE_CURVE('',#150,#151,#178,.T.);
#111=EDGE_CURVE('',#150,#152,#179,.F.);
#112=EDGE_CURVE('',#152,#153,#180,.T.);
#113=EDGE_CURVE('',#153,#151,#181,.T.);
#114=EDGE_CURVE('',#154,#155,#182,.T.);
#115=EDGE_CURVE('',#155,#156,#183,.F.);
#116=EDGE_CURVE('',#157,#156,#184,.T.);
#117=EDGE_CURVE('',#157,#154,#185,.T.);
#118=EDGE_CURVE('',#158,#159,#186,.T.);
#119=EDGE_CURVE('',#158,#160,#187,.T.);
#120=EDGE_CURVE('',#160,#161,#188,.T.);
#121=EDGE_CURVE('',#161,#159,#189,.F.);
#122=EDGE_CURVE('',#162,#162,#12,.T.);
#123=EDGE_CURVE('',#163,#163,#13,.T.);
#124=EDGE_CURVE('',#164,#164,#14,.T.);
#125=EDGE_CURVE('',#165,#165,#15,.T.);
#126=EDGE_CURVE('',#166,#167,#190,.T.);
#127=EDGE_CURVE('',#166,#168,#191,.F.);
#128=EDGE_CURVE('',#168,#169,#192,.T.);
#129=EDGE_CURVE('',#169,#167,#193,.T.);
#130=EDGE_CURVE('',#170,#171,#194,.T.);
#131=EDGE_CURVE('',#172,#170,#195,.T.);
#132=EDGE_CURVE('',#172,#173,#196,.T.);
#133=EDGE_CURVE('',#173,#171,#197,.T.);
#134=EDGE_CURVE('',#160,#155,#16,.F.);
#135=EDGE_CURVE('',#154,#150,#17,.F.);
#136=EDGE_CURVE('',#151,#166,#18,.F.);
#137=EDGE_CURVE('',#167,#161,#19,.F.);
#138=EDGE_CURVE('',#174,#170,#198,.T.);
#139=EDGE_CURVE('',#175,#171,#199,.T.);
#140=EDGE_CURVE('',#175,#174,#200,.T.);
#141=EDGE_CURVE('',#176,#173,#201,.T.);
#142=EDGE_CURVE('',#175,#176,#202,.T.);
#143=EDGE_CURVE('',#177,#172,#203,.T.);
#144=EDGE_CURVE('',#176,#177,#204,.T.);
#145=EDGE_CURVE('',#174,#177,#205,.T.);
#146=EDGE_CURVE('',#156,#158,#20,.T.);
#147=EDGE_CURVE('',#159,#169,#21,.T.);
#148=EDGE_CURVE('',#168,#153,#22,.T.);
#149=EDGE_CURVE('',#152,#157,#23,.T.);
#150=VERTEX_POINT('',#443);
#151=VERTEX_POINT('',#444);
#152=VERTEX_POINT('',#446);
#153=VERTEX_POINT('',#448);
#154=VERTEX_POINT('',#452);
#155=VERTEX_POINT('',#453);
#156=VERTEX_POINT('',#455);
#157=VERTEX_POINT('',#457);
#158=VERTEX_POINT('',#461);
#159=VERTEX_POINT('',#462);
#160=VERTEX_POINT('',#464);
#161=VERTEX_POINT('',#466);
#162=VERTEX_POINT('',#470);
#163=VERTEX_POINT('',#472);
#164=VERTEX_POINT('',#475);
#165=VERTEX_POINT('',#477);
#166=VERTEX_POINT('',#480);
#167=VERTEX_POINT('',#481);
#168=VERTEX_POINT('',#483);
#169=VERTEX_POINT('',#485);
#170=VERTEX_POINT('',#489);
#171=VERTEX_POINT('',#490);
#172=VERTEX_POINT('',#492);
#173=VERTEX_POINT('',#494);
#174=VERTEX_POINT('',#503);
#175=VERTEX_POINT('',#505);
#176=VERTEX_POINT('',#509);
#177=VERTEX_POINT('',#513);
#178=LINE('',#442,#206);
#179=LINE('',#445,#207);
#180=LINE('',#447,#208);
#181=LINE('',#449,#209);
#182=LINE('',#451,#210);
#183=LINE('',#454,#211);
#184=LINE('',#456,#212);
#185=LINE('',#458,#213);
#186=LINE('',#460,#214);
#187=LINE('',#463,#215);
#188=LINE('',#465,#216);
#189=LINE('',#467,#217);
#190=LINE('',#479,#218);
#191=LINE('',#482,#219);
#192=LINE('',#484,#220);
#193=LINE('',#486,#221);
#194=LINE('',#488,#222);
#195=LINE('',#491,#223);
#196=LINE('',#493,#224);
#197=LINE('',#495,#225);
#198=LINE('',#502,#226);
#199=LINE('',#504,#227);
#200=LINE('',#506,#228);
#201=LINE('',#508,#229);
#202=LINE('',#510,#230);
#203=LINE('',#512,#231);
#204=LINE('',#514,#232);
#205=LINE('',#516,#233);
#206=VECTOR('',#356,1.);
#207=VECTOR('',#357,1.);
#208=VECTOR('',#358,1.);
#209=VECTOR('',#359,1.);
#210=VECTOR('',#362,1.);
#211=VECTOR('',#363,1.);
#212=VECTOR('',#364,1.);
#213=VECTOR('',#365,1.);
#214=VECTOR('',#368,1.);
#215=VECTOR('',#369,1.);
#216=VECTOR('',#370,1.);
#217=VECTOR('',#371,1.);
#218=VECTOR('',#386,1.);
#219=VECTOR('',#387,1.);
#220=VECTOR('',#388,1.);
#221=VECTOR('',#389,1.);
#222=VECTOR('',#392,1.);
#223=VECTOR('',#393,1.);
#224=VECTOR('',#394,1.);
#225=VECTOR('',#395,1.);
#226=VECTOR('',#408,1.);
#227=VECTOR('',#409,1.);
#228=VECTOR('',#410,1.);
#229=VECTOR('',#413,1.);
#230=VECTOR('',#414,1.);
#231=VECTOR('',#417,1.);
#232=VECTOR('',#418,1.);
#233=VECTOR('',#421,1.);
#234=EDGE_LOOP('',(#30,#31,#32,#33));
#235=EDGE_LOOP('',(#34,#35,#36,#37));
#236=EDGE_LOOP('',(#38,#39,#40,#41));
#237=EDGE_LOOP('',(#42));
#238=EDGE_LOOP('',(#43));
#239=EDGE_LOOP('',(#44));
#240=EDGE_LOOP('',(#45));
#241=EDGE_LOOP('',(#46,#47,#48,#49));
#242=EDGE_LOOP('',(#50,#51,#52,#53));
#243=EDGE_LOOP('',(#54));
#244=EDGE_LOOP('',(#55));
#245=EDGE_LOOP('',(#56));
#246=EDGE_LOOP('',(#57));
#247=EDGE_LOOP('',(#58,#59,#60,#61,#62,#63,#64,#65));
#248=EDGE_LOOP('',(#66,#67,#68,#69));
#249=EDGE_LOOP('',(#70,#71,#72,#73));
#250=EDGE_LOOP('',(#74,#75,#76,#77));
#251=EDGE_LOOP('',(#78,#79,#80,#81));
#252=EDGE_LOOP('',(#82,#83,#84,#85));
#253=EDGE_LOOP('',(#86,#87,#88,#89,#90,#91,#92,#93));
#254=EDGE_LOOP('',(#94,#95,#96,#97));
#255=EDGE_LOOP('',(#98,#99,#100,#101));
#256=EDGE_LOOP('',(#102,#103,#104,#105));
#257=EDGE_LOOP('',(#106,#107,#108,#109));
#258=FACE_BOUND('',#234,.T.);
#259=FACE_BOUND('',#235,.T.);
#260=FACE_BOUND('',#236,.T.);
#261=FACE_BOUND('',#237,.T.);
#262=FACE_BOUND('',#238,.T.);
#263=FACE_BOUND('',#239,.T.);
#264=FACE_BOUND('',#240,.T.);
#265=FACE_BOUND('',#241,.T.);
#266=FACE_BOUND('',#242,.T.);
#267=FACE_BOUND('',#243,.T.);
#268=FACE_BOUND('',#244,.T.);
#269=FACE_BOUND('',#245,.T.);
#270=FACE_BOUND('',#246,.T.);
#271=FACE_BOUND('',#247,.T.);
#272=FACE_BOUND('',#248,.T.);
#273=FACE_BOUND('',#249,.T.);
#274=FACE_BOUND('',#250,.T.);
#275=FACE_BOUND('',#251,.T.);
#276=FACE_BOUND('',#252,.T.);
#277=FACE_BOUND('',#253,.T.);
#278=FACE_BOUND('',#254,.T.);
#279=FACE_BOUND('',#255,.T.);
#280=FACE_BOUND('',#256,.T.);
#281=FACE_BOUND('',#257,.T.);
#282=PLANE('',#323);
#283=PLANE('',#324);
#284=PLANE('',#325);
#285=PLANE('',#332);
#286=PLANE('',#333);
#287=PLANE('',#334);
#288=PLANE('',#339);
#289=PLANE('',#340);
#290=PLANE('',#341);
#291=PLANE('',#342);
#292=PLANE('',#343);
#293=ADVANCED_FACE('',(#258),#282,.T.);
#294=ADVANCED_FACE('',(#259),#283,.F.);
#295=ADVANCED_FACE('',(#260),#284,.F.);
#296=ADVANCED_FACE('',(#261,#262),#24,.F.);
#297=ADVANCED_FACE('',(#263,#264),#25,.F.);
#298=ADVANCED_FACE('',(#265),#285,.T.);
#299=ADVANCED_FACE('',(#266,#267,#268),#286,.T.);
#300=ADVANCED_FACE('',(#269,#270,#271),#287,.F.);
#301=ADVANCED_FACE('',(#272),#288,.T.);
#302=ADVANCED_FACE('',(#273),#289,.F.);
#303=ADVANCED_FACE('',(#274),#290,.F.);
#304=ADVANCED_FACE('',(#275),#291,.T.);
#305=ADVANCED_FACE('',(#276,#277),#292,.T.);
#306=ADVANCED_FACE('',(#278),#26,.T.);
#307=ADVANCED_FACE('',(#279),#27,.T.);
#308=ADVANCED_FACE('',(#280),#28,.T.);
#309=ADVANCED_FACE('',(#281),#29,.T.);
#310=CLOSED_SHELL('',(#293,#294,#295,#296,#297,#298,#299,#300,#301,#302,
#303,#304,#305,#306,#307,#308,#309));
#311=STYLED_ITEM('',(#312),#319);
#312=PRESENTATION_STYLE_ASSIGNMENT((#313));
#313=SURFACE_STYLE_USAGE(.BOTH.,#314);
#314=SURFACE_SIDE_STYLE('',(#315));
#315=SURFACE_STYLE_FILL_AREA(#316);
#316=FILL_AREA_STYLE('',(#317));
#317=FILL_AREA_STYLE_COLOUR('',#318);
#318=COLOUR_RGB('',0.615686274509804,0.811764705882353,0.929411764705882);
#319=MANIFOLD_SOLID_BREP('Part 1',#310);
#320=SHAPE_DEFINITION_REPRESENTATION(#532,#321);
#321=SHAPE_REPRESENTATION('Part 1',(#322),#527);
#322=AXIS2_PLACEMENT_3D('',#440,#352,#353);
#323=AXIS2_PLACEMENT_3D('',#441,#354,#355);
#324=AXIS2_PLACEMENT_3D('',#450,#360,#361);
#325=AXIS2_PLACEMENT_3D('',#459,#366,#367);
#326=AXIS2_PLACEMENT_3D('',#468,#372,#373);
#327=AXIS2_PLACEMENT_3D('',#469,#374,#375);
#328=AXIS2_PLACEMENT_3D('',#471,#376,#377);
#329=AXIS2_PLACEMENT_3D('',#473,#378,#379);
#330=AXIS2_PLACEMENT_3D('',#474,#380,#381);
#331=AXIS2_PLACEMENT_3D('',#476,#382,#383);
#332=AXIS2_PLACEMENT_3D('',#478,#384,#385);
#333=AXIS2_PLACEMENT_3D('',#487,#390,#391);
#334=AXIS2_PLACEMENT_3D('',#496,#396,#397);
#335=AXIS2_PLACEMENT_3D('',#497,#398,#399);
#336=AXIS2_PLACEMENT_3D('',#498,#400,#401);
#337=AXIS2_PLACEMENT_3D('',#499,#402,#403);
#338=AXIS2_PLACEMENT_3D('',#500,#404,#405);
#339=AXIS2_PLACEMENT_3D('',#501,#406,#407);
#340=AXIS2_PLACEMENT_3D('',#507,#411,#412);
#341=AXIS2_PLACEMENT_3D('',#511,#415,#416);
#342=AXIS2_PLACEMENT_3D('',#515,#419,#420);
#343=AXIS2_PLACEMENT_3D('',#517,#422,#423);
#344=AXIS2_PLACEMENT_3D('',#518,#424,#425);
#345=AXIS2_PLACEMENT_3D('',#519,#426,#427);
#346=AXIS2_PLACEMENT_3D('',#520,#428,#429);
#347=AXIS2_PLACEMENT_3D('',#521,#430,#431);
#348=AXIS2_PLACEMENT_3D('',#522,#432,#433);
#349=AXIS2_PLACEMENT_3D('',#523,#434,#435);
#350=AXIS2_PLACEMENT_3D('',#524,#436,#437);
#351=AXIS2_PLACEMENT_3D('',#525,#438,#439);
#352=DIRECTION('',(0.,0.,1.));
#353=DIRECTION('',(1.,0.,0.));
#354=DIRECTION('',(0.,1.,0.));
#355=DIRECTION('',(0.,0.,1.));
#356=DIRECTION('',(1.,0.,0.));
#357=DIRECTION('',(0.,0.,-1.));
#358=DIRECTION('',(1.,0.,0.));
#359=DIRECTION('',(0.,0.,-1.));
#360=DIRECTION('',(1.,5.97027628020652E-17,0.));
#361=DIRECTION('',(-5.97027628020652E-17,1.,0.));
#362=DIRECTION('',(5.97027628020652E-17,-1.,0.));
#363=DIRECTION('',(0.,0.,-1.));
#364=DIRECTION('',(5.97027628020652E-17,-1.,0.));
#365=DIRECTION('',(0.,0.,-1.));
#366=DIRECTION('',(-2.28478561208668E-16,1.,0.));
#367=DIRECTION('',(-1.,-2.28478561208668E-16,0.));
#368=DIRECTION('',(1.,2.28478561208668E-16,0.));
#369=DIRECTION('',(0.,0.,-1.));
#370=DIRECTION('',(1.,2.28478561208668E-16,0.));
#371=DIRECTION('',(0.,0.,-1.));
#372=DIRECTION('',(0.,0.,-1.));
#373=DIRECTION('',(-1.,0.,0.));
#374=DIRECTION('',(0.,0.,1.));
#375=DIRECTION('',(1.,0.,0.));
#376=DIRECTION('',(0.,0.,1.));
#377=DIRECTION('',(1.,0.,0.));
#378=DIRECTION('',(0.,0.,-1.));
#379=DIRECTION('',(-1.,0.,0.));
#380=DIRECTION('',(0.,0.,1.));
#381=DIRECTION('',(1.,0.,0.));
#382=DIRECTION('',(0.,0.,1.));
#383=DIRECTION('',(1.,0.,0.));
#384=DIRECTION('',(1.,0.,0.));
#385=DIRECTION('',(0.,0.,-1.));
#386=DIRECTION('',(0.,-1.,0.));
#387=DIRECTION('',(0.,0.,-1.));
#388=DIRECTION('',(0.,-1.,0.));
#389=DIRECTION('',(0.,0.,-1.));
#390=DIRECTION('',(0.,0.,1.));
#391=DIRECTION('',(1.,0.,0.));
#392=DIRECTION('',(0.,1.,0.));
#393=DIRECTION('',(-1.,0.,0.));
#394=DIRECTION('',(0.,1.,0.));
#395=DIRECTION('',(-1.,0.,0.));
#396=DIRECTION('',(0.,0.,1.));
#397=DIRECTION('',(1.,0.,0.));
#398=DIRECTION('',(0.,0.,1.));
#399=DIRECTION('',(1.,0.,0.));
#400=DIRECTION('',(0.,0.,1.));
#401=DIRECTION('',(1.,0.,0.));
#402=DIRECTION('',(0.,0.,1.));
#403=DIRECTION('',(1.,0.,0.));
#404=DIRECTION('',(0.,0.,1.));
#405=DIRECTION('',(1.,0.,0.));
#406=DIRECTION('',(1.,0.,0.));
#407=DIRECTION('',(0.,0.,-1.));
#408=DIRECTION('',(0.,0.,-1.));
#409=DIRECTION('',(0.,0.,-1.));
#410=DIRECTION('',(0.,-1.,0.));
#411=DIRECTION('',(0.,1.,0.));
#412=DIRECTION('',(0.,0.,1.));
#413=DIRECTION('',(0.,0.,-1.));
#414=DIRECTION('',(1.,0.,0.));
#415=DIRECTION('',(1.,0.,0.));
#416=DIRECTION('',(0.,0.,-1.));
#417=DIRECTION('',(0.,0.,-1.));
#418=DIRECTION('',(0.,-1.,0.));
#419=DIRECTION('',(0.,1.,0.));
#420=DIRECTION('',(0.,0.,1.));
#421=DIRECTION('',(1.,0.,0.));
#422=DIRECTION('',(0.,0.,1.));
#423=DIRECTION('',(1.,0.,0.));
#424=DIRECTION('',(0.,0.,1.));
#425=DIRECTION('',(1.,0.,0.));
#426=DIRECTION('',(0.,0.,1.));
#427=DIRECTION('',(1.,0.,0.));
#428=DIRECTION('',(0.,0.,1.));
#429=DIRECTION('',(1.,0.,0.));
#430=DIRECTION('',(0.,0.,1.));
#431=DIRECTION('',(1.,0.,0.));
#432=DIRECTION('',(0.,0.,-1.));
#433=DIRECTION('',(-1.,0.,0.));
#434=DIRECTION('',(0.,0.,1.));
#435=DIRECTION('',(1.,0.,0.));
#436=DIRECTION('',(0.,0.,-1.));
#437=DIRECTION('',(-1.,0.,0.));
#438=DIRECTION('',(0.,0.,1.));
#439=DIRECTION('',(1.,0.,0.));
#440=CARTESIAN_POINT('',(0.,0.,0.));
#441=CARTESIAN_POINT('',(0.014185,0.001,0.003));
#442=CARTESIAN_POINT('',(0.014185,0.001,0.));
#443=CARTESIAN_POINT('',(-0.0005,0.001,0.));
#444=CARTESIAN_POINT('',(0.02887,0.001,0.));
#445=CARTESIAN_POINT('',(-0.0005,0.001,0.004));
#446=CARTESIAN_POINT('',(-0.0005,0.001,0.004));
#447=CARTESIAN_POINT('',(0.014185,0.001,0.004));
#448=CARTESIAN_POINT('',(0.02887,0.001,0.004));
#449=CARTESIAN_POINT('',(0.02887,0.001,0.003));
#450=CARTESIAN_POINT('',(-0.001,-0.00808,0.003));
#451=CARTESIAN_POINT('',(-0.001,-0.00808,0.));
#452=CARTESIAN_POINT('',(-0.001,0.0005,0.));
#453=CARTESIAN_POINT('',(-0.001,-0.01666,0.));
#454=CARTESIAN_POINT('',(-0.001,-0.01666,0.003));
#455=CARTESIAN_POINT('',(-0.001,-0.01666,0.004));
#456=CARTESIAN_POINT('',(-0.001,-0.00808,0.004));
#457=CARTESIAN_POINT('',(-0.001,0.0005,0.004));
#458=CARTESIAN_POINT('',(-0.001,0.0005,0.));
#459=CARTESIAN_POINT('',(0.014185,-0.01716,0.003));
#460=CARTESIAN_POINT('',(0.014185,-0.01716,0.004));
#461=CARTESIAN_POINT('',(-0.0005,-0.01716,0.004));
#462=CARTESIAN_POINT('',(0.02887,-0.01716,0.004));
#463=CARTESIAN_POINT('',(-0.0005,-0.01716,0.003));
#464=CARTESIAN_POINT('',(-0.0005,-0.01716,0.));
#465=CARTESIAN_POINT('',(0.014185,-0.01716,0.));
#466=CARTESIAN_POINT('',(0.02887,-0.01716,0.));
#467=CARTESIAN_POINT('',(0.02887,-0.01716,0.004));
#468=CARTESIAN_POINT('',(0.019285,-0.00794,0.003));
#469=CARTESIAN_POINT('',(0.019285,-0.00794,0.003));
#470=CARTESIAN_POINT('',(0.020885,-0.00794,0.003));
#471=CARTESIAN_POINT('',(0.019285,-0.00794,0.));
#472=CARTESIAN_POINT('',(0.020885,-0.00794,0.));
#473=CARTESIAN_POINT('',(0.009085,-0.00794,0.003));
#474=CARTESIAN_POINT('',(0.009085,-0.00794,0.003));
#475=CARTESIAN_POINT('',(0.010685,-0.00794,0.003));
#476=CARTESIAN_POINT('',(0.009085,-0.00794,0.));
#477=CARTESIAN_POINT('',(0.010685,-0.00794,0.));
#478=CARTESIAN_POINT('',(0.02937,-0.00808,0.003));
#479=CARTESIAN_POINT('',(0.02937,-0.00808,0.));
#480=CARTESIAN_POINT('',(0.02937,0.0005,0.));
#481=CARTESIAN_POINT('',(0.02937,-0.01666,0.));
#482=CARTESIAN_POINT('',(0.02937,0.0005,0.003));
#483=CARTESIAN_POINT('',(0.02937,0.0005,0.004));
#484=CARTESIAN_POINT('',(0.02937,-0.00808,0.004));
#485=CARTESIAN_POINT('',(0.02937,-0.01666,0.004));
#486=CARTESIAN_POINT('',(0.02937,-0.01666,0.));
#487=CARTESIAN_POINT('',(0.014185,-0.00808,0.003));
#488=CARTESIAN_POINT('',(0.,-0.00808,0.003));
#489=CARTESIAN_POINT('',(1.7347234759768E-18,-0.01616,0.003));
#490=CARTESIAN_POINT('',(0.,0.,0.003));
#491=CARTESIAN_POINT('',(0.014185,-0.01616,0.003));
#492=CARTESIAN_POINT('',(0.02837,-0.01616,0.003));
#493=CARTESIAN_POINT('',(0.02837,-0.00808,0.003));
#494=CARTESIAN_POINT('',(0.02837,0.,0.003));
#495=CARTESIAN_POINT('',(0.014185,0.,0.003));
#496=CARTESIAN_POINT('',(0.014185,-0.00808,0.));
#497=CARTESIAN_POINT('',(-0.0005,-0.01666,0.));
#498=CARTESIAN_POINT('',(-0.0005,0.0005,0.));
#499=CARTESIAN_POINT('',(0.02887,0.0005,0.));
#500=CARTESIAN_POINT('',(0.02887,-0.01666,0.));
#501=CARTESIAN_POINT('',(0.,-0.00808,0.004));
#502=CARTESIAN_POINT('',(1.7347234759768E-18,-0.01616,0.004));
#503=CARTESIAN_POINT('',(1.7347234759768E-18,-0.01616,0.004));
#504=CARTESIAN_POINT('',(0.,0.,0.004));
#505=CARTESIAN_POINT('',(0.,0.,0.004));
#506=CARTESIAN_POINT('',(0.,-0.00808,0.004));
#507=CARTESIAN_POINT('',(0.014185,0.,0.004));
#508=CARTESIAN_POINT('',(0.02837,0.,0.004));
#509=CARTESIAN_POINT('',(0.02837,0.,0.004));
#510=CARTESIAN_POINT('',(0.014185,0.,0.004));
#511=CARTESIAN_POINT('',(0.02837,-0.00808,0.004));
#512=CARTESIAN_POINT('',(0.02837,-0.01616,0.004));
#513=CARTESIAN_POINT('',(0.02837,-0.01616,0.004));
#514=CARTESIAN_POINT('',(0.02837,-0.00808,0.004));
#515=CARTESIAN_POINT('',(0.014185,-0.01616,0.004));
#516=CARTESIAN_POINT('',(0.014185,-0.01616,0.004));
#517=CARTESIAN_POINT('',(0.014185,-0.00808,0.004));
#518=CARTESIAN_POINT('',(-0.0005,-0.01666,0.004));
#519=CARTESIAN_POINT('',(0.02887,-0.01666,0.004));
#520=CARTESIAN_POINT('',(0.02887,0.0005,0.004));
#521=CARTESIAN_POINT('',(-0.0005,0.0005,0.004));
#522=CARTESIAN_POINT('',(-0.0005,-0.01666,0.003));
#523=CARTESIAN_POINT('',(-0.0005,0.0005,0.003));
#524=CARTESIAN_POINT('',(0.02887,0.0005,0.003));
#525=CARTESIAN_POINT('',(0.02887,-0.01666,0.003));
#526=MECHANICAL_DESIGN_GEOMETRIC_PRESENTATION_REPRESENTATION('',(#311),
#527);
#527=(
GEOMETRIC_REPRESENTATION_CONTEXT(3)
GLOBAL_UNCERTAINTY_ASSIGNED_CONTEXT((#528))
GLOBAL_UNIT_ASSIGNED_CONTEXT((#531,#530,#529))
REPRESENTATION_CONTEXT('Part 1','TOP_LEVEL_ASSEMBLY_PART')
);
#528=UNCERTAINTY_MEASURE_WITH_UNIT(LENGTH_MEASURE(1.E-8),#531,
'DISTANCE_ACCURACY_VALUE','Maximum Tolerance applied to model');
#529=(
NAMED_UNIT(*)
SI_UNIT($,.STERADIAN.)
SOLID_ANGLE_UNIT()
);
#530=(
NAMED_UNIT(*)
PLANE_ANGLE_UNIT()
SI_UNIT($,.RADIAN.)
);
#531=(
LENGTH_UNIT()
NAMED_UNIT(*)
SI_UNIT($,.METRE.)
);
#532=PRODUCT_DEFINITION_SHAPE('','',#533);
#533=PRODUCT_DEFINITION('','',#535,#534);
#534=PRODUCT_DEFINITION_CONTEXT('',#541,'design');
#535=PRODUCT_DEFINITION_FORMATION_WITH_SPECIFIED_SOURCE('','',#537,
 .NOT_KNOWN.);
#536=PRODUCT_RELATED_PRODUCT_CATEGORY('','',(#537));
#537=PRODUCT('Part 1','Part 1','Part 1',(#539));
#538=PRODUCT_CATEGORY('','');
#539=PRODUCT_CONTEXT('',#541,'mechanical');
#540=APPLICATION_PROTOCOL_DEFINITION('international standard',
'ap242_managed_model_based_3d_engineering',2020,#541);
#541=APPLICATION_CONTEXT('managed model based 3d engineering');
ENDSEC;
END-ISO-10303-21;
